<?xml version="1.0" encoding="UTF-8"?>
<!-- Generator: Adobe Illustrator 28.1.0, SVG Export Plug-In . SVG Version: 6.00 Build 0)  -->
<svg xmlns:v="https://vecta.io/nano" xmlns="http://www.w3.org/2000/svg" xmlns:xlink="http://www.w3.org/1999/xlink" version="1.0" id="Layer_1" x="0px" y="0px" width="500px" height="500px" viewBox="0 0 500 500" xml:space="preserve">
<g>
	<path fill="#FFFFFF" stroke="#FFFFFF" stroke-miterlimit="10" d="M192.8,130.3l-0.1,2.6v16.3c0,5.1,0.3,8.8,0.9,11   c0.9,3.3,3,5,6.4,5c2.6,0,4.5-0.9,5.6-2.7s1.6-4.8,1.6-9.1v-2.3v-0.5v-0.3c0-1.1,0.4-1.6,1-1.6c0.7,0,1,0.5,1,1.6v1.9   c0,3.6-0.3,6.5-0.8,8.5c-1,4-3.8,6-8.5,6c-6.2,0-9.3-4.4-9.3-13.3V133c0-1.6-0.1-2.7-0.4-3.1s-0.9-0.6-1.9-0.6   c-0.3,0-1.1,0.1-2.3,0.1l-1.8,0.2c-1,0-1.5-0.4-1.5-1.1c0-0.6,0.5-0.9,1.4-0.9c0.4,0,1,0,1.9,0.1s1.5,0.1,1.9,0.1   c1.6,0,2.6-0.5,2.9-1.5c0.2-0.6,0.3-1.6,0.3-3v-0.4c0-2.2,0.1-3.5,0.2-4.1c0.1-0.5,0.4-0.8,0.9-0.8c0.6,0,0.9,0.4,0.9,1.2v0.1   l-0.2,3.7c-0.2,0.8-0.2,1.8-0.2,2.9s0.8,1.7,2.3,1.7h2.6c0.6,0,1.5,0,2.6-0.1s2.1-0.1,2.6-0.1c1,0,1.6,0.3,1.6,1s-0.6,1-1.7,1h-0.2   l-2.4-0.1c-0.4,0-1.3-0.1-2.6-0.1c-1.1-0.1-1.9-0.1-2.6-0.1C193.6,129.2,192.9,129.5,192.8,130.3L192.8,130.3z M223,134.4   c1.3-2,2.7-3.5,4-4.6c2.8-2.1,6.2-3.2,10.1-3.2c2.9,0,5.4,0.6,7.6,1.8c2.4,1.4,4,3.4,4.7,6c0.4,1.5,0.6,4.1,0.6,7.8v9   c0,6,0.2,9.7,0.6,10.9s1.6,1.9,3.6,1.9h1.6h1.6h0.4c1.1,0,1.7,0.3,1.7,0.9s-0.5,0.9-1.5,0.9h-0.2l-2.7-0.2l-3.2-0.2h-2h-1.5h-2.1   l-3.1,0.2l-2.6,0.2h-0.3c-1,0-1.5-0.3-1.5-0.9s0.6-0.9,1.7-0.9h0.4h1.5h1.5c2,0,3.1-0.6,3.6-1.9c0.4-1.2,0.6-4.9,0.6-10.9v-8.6   c0-2.8-0.1-4.8-0.2-5.7c-0.3-2.1-1.1-3.9-2.2-5.2c-2-2.3-5-3.5-8.9-3.5c-3.6,0-6.7,1.2-9.3,3.5c-2.9,2.6-4.4,6.4-4.4,11.2v8.3   c0,6,0.2,9.6,0.6,10.9s1.6,1.9,3.5,1.9h1.5h1.5h0.4c1.1,0,1.7,0.3,1.7,0.9s-0.5,0.9-1.5,0.9h-0.2l-2.6-0.2l-3.1-0.2h-2h-1.5h-2.2   l-3.2,0.2l-2.7,0.2h-0.2c-1,0-1.5-0.3-1.5-0.9s0.6-0.9,1.7-0.9h0.4h1.7h1.7c2,0,3.1-0.6,3.6-1.9c0.4-1.2,0.6-4.9,0.6-11V124   c0-5.1-0.2-8.1-0.6-8.8s-1.2-1.1-2.6-1.1c-0.7,0-1.6,0.1-2.6,0.2l-2.3,0.3c-1,0-1.5-0.3-1.5-1s0.5-1,1.4-1h0.1h2.2h3.1h1.4h1.4   c1.2,0,1.9,0.6,1.9,1.9L223,134.4L223,134.4L223,134.4z M297.3,143.7c0,1.1-0.2,1.7-0.7,1.9s-1.2,0.3-2.3,0.3h-27.4   c-0.7,0-1.2,0.1-1.4,0.3s-0.3,0.7-0.3,1.6c0,5.2,1.4,9.3,4.2,12.5s6.5,4.8,11,4.8c4.9,0,8.8-1.7,11.5-5.2c1.1-1.3,1.9-2.8,2.3-4.4   c0-0.2,0.1-0.8,0.4-1.9c0.2-0.9,0.6-1.3,1.2-1.3s0.9,0.4,0.9,1.1c0,0.9-0.3,2-0.9,3.5c-1.2,3.1-3.2,5.5-5.9,7.2s-5.9,2.6-9.5,2.6   c-5.3,0-9.5-1.8-12.7-5.4s-4.8-8.3-4.8-14.1c0-6,1.7-11,5-14.8s7.6-5.7,12.9-5.7c4.6,0,8.5,1.6,11.6,4.9   C295.7,134.9,297.3,138.9,297.3,143.7L297.3,143.7z M265.5,143c0,0.8,0.6,1.2,1.7,1.2h26.7c0.9,0,1.3-0.4,1.3-1.2   c0-3.3-1.1-6.5-3.4-9.4c-2.6-3.5-6.3-5.2-11-5.2c-3.6,0-6.6,1-9.2,3s-4.4,4.8-5.5,8.4C265.7,141,265.5,142.1,265.5,143L265.5,143z    M125.8,332.4c2.8-5.8,7.4-8.8,13.9-8.8c5,0,9,1.7,11.9,5.2s4.4,8.2,4.4,14.1c0,6.1-1.6,11.1-4.8,14.9s-7.4,5.7-12.5,5.7   c-6,0-10.3-2.5-12.9-7.4v6.5c0,6.1,0.2,9.8,0.6,11c0.4,1.3,1.6,1.9,3.6,1.9c0.4,0,0.9,0,1.6-0.1c0.7,0,1.3-0.1,1.6-0.1   c0.1,0,0.3-0.1,0.5-0.1c1.1,0,1.6,0.3,1.6,1c0,0.6-0.5,0.9-1.5,0.9h-0.2l-2.7-0.4h-5.4H124h-2.2h-3.3l-2.7,0.4h-0.2   c-1,0-1.5-0.3-1.5-0.9c0-0.7,0.6-1,1.7-1c0.1,0,0.2,0,0.4,0.1c0.4,0,0.9,0,1.7,0.1c0.8,0,1.3,0.1,1.7,0.1c2,0,3.2-0.6,3.6-1.9   c0.4-1.2,0.6-4.9,0.6-11v-26.9v-4.9c-0.1-2.7-0.5-4.2-1.2-4.7c-0.4-0.3-1.1-0.4-2-0.4c-0.3,0-1.2,0.1-2.6,0.2l-2.3,0.1   c-1,0-1.6-0.3-1.6-1s0.4-1,1.3-1h0.2l2.2,0.2h1.8h0.9c0.4,0,1,0,1.8-0.1c0.8,0,1.4-0.1,1.8-0.1c1,0,1.5,0.5,1.5,1.6v0.8   L125.8,332.4L125.8,332.4L125.8,332.4z M139.1,362c4.5,0,8.1-1.7,10.8-5c2.7-3.4,4-7.9,4-13.5c0-5.8-1.2-10.4-3.7-13.5   c-2.4-3.2-5.9-4.8-10.4-4.8c-4.3,0-7.6,1.5-10.2,4.4c-1.5,1.7-2.5,3.5-3,5.4s-0.8,4.6-0.8,8.2c0,3.8,0.1,6.3,0.2,7.5   c0.4,2.8,1.3,5,2.8,6.7C131.5,360.5,134.9,362,139.1,362L139.1,362z M172.9,331.1c2.8-5,6.9-7.4,12.2-7.4c3.1,0,5.6,0.9,7.6,2.6   s3,4,3,6.7c0,1.8-0.5,3.3-1.4,4.5s-2,1.8-3.5,1.8c-1.9,0-2.8-0.9-2.8-2.6c0-1.5,0.8-2.3,2.3-2.3c0.4,0,0.8,0.2,1.2,0.5   s0.7,0.5,0.9,0.5c0.7,0,1-0.9,1-2.8c0-2.2-0.8-3.9-2.4-5.3s-3.7-2-6.3-2c-4.4,0-7.7,1.6-9.7,5c-1.5,2.5-2.2,6.3-2.2,11.5v6.6   c0,6,0.2,9.7,0.6,10.9s1.6,1.9,3.6,1.9h1.6h1.6h0.4c1.1,0,1.7,0.3,1.7,0.9s-0.5,0.9-1.5,0.9h-0.2l-2.7-0.2l-3.2-0.2h-2.3H171h-2.2   l-3.2,0.2l-2.7,0.2h-0.2c-1,0-1.5-0.3-1.5-0.9s0.6-0.9,1.7-0.9h0.4h1.6h1.6c2,0,3.2-0.6,3.6-1.9s0.6-4.9,0.6-10.9V336v-4.9   c-0.1-2.7-0.5-4.2-1.2-4.6c-0.4-0.3-1.1-0.4-2-0.4c-0.3,0-1.2,0-2.6,0.2l-2.3,0.1c-1,0-1.5-0.3-1.5-1s0.4-1,1.3-1   c0.8,0,1.7,0.1,2.5,0.2c0.6,0,1.2,0.1,1.8,0.1h1.2c0.6,0,1.4-0.1,2.5-0.2c0.1,0,0.2,0,0.4-0.1h0.4c1.1,0,1.6,0.6,1.6,1.7   L172.9,331.1L172.9,331.1L172.9,331.1z M218.1,323.6c5.4,0,9.8,1.9,13.2,5.6s5.1,8.6,5.1,14.6c0,5.8-1.7,10.6-5.1,14.3   s-7.8,5.5-13.2,5.5c-5.3,0-9.6-1.9-12.9-5.7c-3.4-3.8-5-8.7-5-14.7c0-5.7,1.7-10.4,5-14S212.9,323.6,218.1,323.6L218.1,323.6z    M218.1,362c4.8,0,8.6-1.7,11.6-5s4.5-7.7,4.5-13c0-5.6-1.5-10.1-4.5-13.6s-6.8-5.2-11.6-5.2s-8.6,1.7-11.5,5s-4.4,7.7-4.4,13.1   c0,5.6,1.5,10.2,4.3,13.6C209.6,360.3,213.4,362,218.1,362L218.1,362z M245.6,324.6h2.9c0.4,0,1,0,1.7-0.1s1.3-0.1,1.7-0.1   c1.1,0,1.6,0.7,1.6,2.2v0.5v0.8c0,0.5-0.1,0.9-0.1,1.2l-0.1,4.3v28l-0.2,7.1c-0.1,1.1-0.5,2.2-1.1,3.4c-1.9,3.7-5.4,5.6-10.5,5.6   c-3,0-5.5-0.7-7.5-2c-1.9-1.4-2.9-3.1-2.9-5.3c0-1,0.3-1.8,1-2.5c0.6-0.7,1.4-1,2.4-1c1.8,0,2.6,0.9,2.6,2.6c0,1.3-0.7,2-2.1,2.2   c-0.5,0.1-0.8,0.3-0.8,0.6c0,1,0.7,1.9,2.2,2.7s3.1,1.2,5,1.2c2.6,0,4.7-0.6,6.4-1.9s2.7-3,3.1-5.2c0.2-1.2,0.3-3.8,0.3-7.6V336   c0-5.3-0.2-8.2-0.5-8.9s-1.2-1-2.6-1c-0.3,0-1.2,0-2.6,0.2l-2.1,0.1h-0.2c-1,0-1.5-0.3-1.5-1s0.4-1,1.2-1h0.3L245.6,324.6   L245.6,324.6z M251.4,312.5c0.7,0,1.3,0.3,1.9,0.9c0.5,0.6,0.8,1.2,0.8,2s-0.3,1.4-0.8,2c-0.5,0.5-1.2,0.8-2,0.8   c-0.7,0-1.3-0.3-1.9-0.8s-0.8-1.2-0.8-2s0.3-1.5,0.8-2C249.9,312.8,250.6,312.5,251.4,312.5z M298,340.6c0,1.1-0.2,1.7-0.7,1.9   s-1.2,0.3-2.3,0.3h-27.4c-0.7,0-1.2,0.1-1.4,0.3s-0.3,0.7-0.3,1.5c0,5.2,1.4,9.3,4.2,12.5s6.5,4.8,11,4.8c4.9,0,8.8-1.7,11.5-5.2   c1.1-1.3,1.9-2.8,2.3-4.4c0-0.2,0.1-0.8,0.4-1.9c0.2-0.9,0.6-1.3,1.2-1.3s0.9,0.4,0.9,1.1c0,0.9-0.3,2-0.9,3.5   c-1.2,3.1-3.2,5.5-5.9,7.2s-5.9,2.6-9.5,2.6c-5.3,0-9.5-1.8-12.7-5.4s-4.8-8.3-4.8-14.1c0-6,1.7-11,5-14.8s7.6-5.7,12.9-5.7   c4.6,0,8.5,1.6,11.6,4.9C296.4,331.8,298,335.8,298,340.6L298,340.6z M266.2,339.9c0,0.8,0.6,1.2,1.7,1.2h26.7   c0.9,0,1.3-0.4,1.3-1.2c0-3.3-1.1-6.5-3.4-9.5c-2.6-3.5-6.3-5.2-11-5.2c-3.6,0-6.6,1-9.2,3s-4.4,4.8-5.5,8.4   C266.4,337.9,266.2,339,266.2,339.9L266.2,339.9z M331.8,335.6c0.7,0,1.1,0.1,1.3,0.4l0.5,0.5c0.3,0.2,0.5,0.2,0.6,0.2   c0.7,0,1.1-0.7,1.1-2.2c0-2.6-1.2-4.9-3.5-6.7c-2.4-1.8-5.2-2.8-8.6-2.8c-5,0-9,1.7-12,5.1s-4.5,8-4.5,13.7c0,5.5,1.4,9.9,4.3,13.1   s6.8,4.8,11.7,4.8c4.6,0,8.2-1.5,10.5-4.5c1.7-2.1,2.5-4.2,2.6-6.2c0-1.3,0.4-1.9,1.1-1.9s1.1,0.5,1.1,1.5c0,3.1-1.3,6-4,8.7   s-6.4,4-11.1,4c-5.5,0-10-1.8-13.3-5.4c-3.4-3.6-5-8.3-5-14.1c0-6,1.7-11,5.1-14.7c3.4-3.8,7.9-5.7,13.3-5.7c4,0,7.4,1.1,10.2,3.3   c2.7,2.2,4.1,4.9,4.1,8.1c0,1.6-0.5,3-1.4,4.1s-2,1.6-3.4,1.6c-2,0-3-0.9-3-2.8C329.5,336.4,330.3,335.6,331.8,335.6L331.8,335.6z    M351.5,327.2l-0.1,2.6V346c0,5.1,0.3,8.8,0.9,11c0.9,3.3,3,5,6.3,5c2.6,0,4.5-0.9,5.6-2.7s1.6-4.8,1.6-9.1v-2.3v-0.5v-0.3   c0-1.1,0.3-1.6,1-1.6s1,0.5,1,1.6v1.9c0,3.6-0.3,6.5-0.8,8.5c-1,4-3.8,6-8.5,6c-6.2,0-9.3-4.4-9.3-13.3v-20.5   c0-1.6-0.1-2.7-0.3-3.1S348,326,347,326c-0.3,0-1.1,0-2.3,0.2l-1.8,0.1c-1,0-1.5-0.4-1.5-1.1c0-0.6,0.5-0.9,1.4-0.9   c0.4,0,1,0,1.9,0.1c0.8,0.1,1.5,0.1,1.9,0.1c1.6,0,2.6-0.5,2.9-1.5c0.2-0.6,0.3-1.6,0.3-3v-0.4c0-2.2,0.1-3.5,0.2-4.1   s0.4-0.8,0.9-0.8c0.6,0,0.8,0.4,0.8,1.2v0.2l-0.2,3.7c-0.2,0.8-0.2,1.8-0.2,2.9s0.8,1.7,2.3,1.7h2.6c0.6,0,1.5,0,2.6-0.1   s2-0.1,2.6-0.1c1,0,1.6,0.3,1.6,1s-0.6,1-1.7,1h-0.2l-2.4-0.1c-0.4,0-1.3,0-2.6-0.2c-1.1,0-1.9-0.1-2.6-0.1   C352.4,326.1,351.6,326.5,351.5,327.2L351.5,327.2z M80.8,234.7h0.5c0.2,0,0.8-0.1,1.5-0.2s1.9-0.6,3.5-1.4s2.9-1.3,3.7-1.6   l2.4-0.5c0.8-0.1,1.6-0.1,2.4,0.1c1.3,0.2,2.7,1.1,4.3,2.5l3.3,2.8c0.2,0.7,0.6,2.7,1.1,5.9s1.2,5.4,2.1,6.5   c1.6-0.3,3.6-1.2,6.1-2.6s4.5-2.4,6-2.8s3-0.5,4.4-0.2c-0.2,1-0.7,2-1.7,3c-0.9,0.9-2,1.7-3.1,2.3l-5.4,2.2c-2.1,0.8-4.1,1.7-6,2.7   c-1.3,0.8-2.3,1.5-3,2.3c-1,1.1-2.1,3-3.1,5.6s-1.9,4.5-2.5,5.5c-1.6,2.5-3.6,5-6,7.7c-2.4,2.6-5,4.8-7.7,6.4   c-1.4,0.9-3.2,1.6-5.2,2.3c-2,0.6-3.8,0.9-5.4,0.7s-2.9-0.7-3.9-1.4c-0.6,0.2-1.3,0.9-2.2,1.9s-1.8,1.6-2.6,1.7   c-0.7,0.2-1.8,0-3.3-0.6s-2.4-0.9-2.7-1c-0.7-1.4-1.2-3.3-1.4-5.8s0-6.3,0.7-11.4c0.2-2.5,1-6.5,2.3-12.2c1.3-5.6,2.1-9.8,2.5-12.3   c1.9-13.1,3.4-25.4,4.3-36.9c0-0.1,0.1-1.9,0.4-5.4c0.2-3.5,0.7-6,1.4-7.5s1.7-2.2,3.1-1.9c2.6,0.5,4.7,1.7,6.3,3.7   c1.5,2,2.6,4.8,3.3,8.5c0.7,3.6,0.8,9.3,0.3,17C80.9,227.9,80.7,232.7,80.8,234.7L80.8,234.7z M81.6,241.6c-1.6,2.1-3,4.8-4.3,8   s-2,6.1-2.3,8.7c-0.2,2.5-0.2,4.5,0.1,5.8c1.6-0.1,3.5-0.9,5.6-2.5s3.2-2.4,3.3-2.4c4.6-2.6,7.4-4.4,8.4-5.3   c1.7-3.8,2.6-7.2,2.7-10.2s-0.4-5.4-1.5-7c-1-0.5-2.3-0.7-3.8-0.6s-3,0.7-4.5,1.7C83.9,239,82.7,240.2,81.6,241.6L81.6,241.6z    M75.6,275.3c2,0.3,3.8,0,5.3-1s2.7-2.3,3.4-3.9s1.1-3,1.3-4.3C80.3,267.1,77,270.1,75.6,275.3L75.6,275.3z"></path>
	<path fill="#FFFFFF" stroke="#FFFFFF" stroke-miterlimit="10" d="M146.6,237.6c-0.6,0.6-1.3,1.1-2,1.4s-1.8,0-3.2-0.8   s-2.6-1.2-3.5-1.1c-1.4,0.2-3.2,1.9-5.3,5.3c-1.9,3.2-3.5,6.9-4.8,11.2l-1.6,4c-0.6,2.6-0.8,5-0.4,7s1.1,3.4,2.3,4   c1.2,0.7,2.8,0.5,4.9-0.5c1.9-0.9,3.3-1.8,4.2-2.8s2.1-2.7,3.7-5.3c0.2-0.3,1.1-1.4,2.6-3.2s2.4-3.3,2.7-4.3l1.6-6l2.3-8   c0.2-0.5,0.4-1.1,0.6-1.6c1.1-3,2.2-5,3.3-6c1.1-0.9,2.4-1.3,3.9-1.3c1.4,0.1,2.6,0.6,3.5,1.7c0.9,1,1.5,1.7,1.6,1.9   c0.4,2.2,0.6,5,0.5,8.2s-0.5,7.7-1.4,13.5c-0.9,5.8-1.3,9.7-1.5,11.7c-0.1,0.9-0.1,3.6,0,8.1s-0.3,8-1.2,10.3   c0,0.7,0.3,1.5,0.8,2.4s0.8,1.7,0.8,2.4c-0.4,0.6-1,1.2-1.7,1.9c-0.8,0.7-1.4,1.3-1.9,1.7c-0.7-0.2-1.9-0.5-3.5-0.7   s-2.7-0.4-3.2-0.5c-0.3-0.5-1-1.3-2.1-2.4s-1.9-2-2.4-2.8s-0.9-1.6-1.1-2.4c-0.4-1.4-0.6-3.9-0.7-7.6s-0.5-6.4-1.3-8.1   c-1.7,0.7-3.6,2.2-5.8,4.5c-2.2,2.2-3.9,3.7-5.2,4.3s-2.5,0.9-3.6,0.9h-2.2c-2.4-0.2-5-1.3-7.8-3.5s-4.6-4.3-5.5-6.5   c-1.4-3.5-1.5-7.9-0.4-13s3-9.8,5.6-14c1.4-2.2,3.2-4.5,5.6-7s4.3-4,5.7-4.7c1.6-0.7,3.6-1.1,5.9-1.1s4.4,0.5,6.1,1.4   s3,2.1,3.9,3.4C146,234.9,146.5,236.3,146.6,237.6L146.6,237.6z M189.6,277.3c0.6,0,1.4-0.2,2.3-0.6s2.3-1.7,4.1-3.9   c4.2-5.1,8.3-11.7,12.4-19.6l3.6-7.2c1-1.8,1.8-3.1,2.3-3.7s1-1.1,1.6-1.3s1-0.3,1.3-0.3c0.4,0.5,0.6,1.1,0.7,1.7s-0.2,1.5-0.8,2.5   s-0.9,1.6-1,1.8c-0.2,0.5-0.4,1.4-0.8,2.8s-0.8,2.3-1.1,2.9l-3.6,5.2c-3,5.2-5.1,8.7-6.5,10.5l-1.9,2.4   c-4.5,7.3-9.3,11.9-14.4,13.7c-1.2,0.4-2.5,0.5-4,0.4c-1.4-0.1-2.8-0.7-4.1-1.8s-2.5-2.7-3.5-4.8c-1.1-2.1-1.9-4.8-2.5-7.9   c-0.6-3.2-0.8-6.1-0.8-8.8c0-1.5,0.5-5.8,1.6-12.8l1.7-12.5c0.3-2,1.1-4.9,2.2-8.7c1.2-3.8,1.9-6.3,2.2-7.7   c1.8-9.1,3.1-14.8,3.9-17.1c0.7-2.4,1.4-4.4,2.2-6.2c1.2-3.1,2.8-4.9,4.7-5.6s4.1-0.8,6.5-0.4c1.8,0.3,3.6,1.5,5.6,3.5   s3.2,3.9,3.6,5.8c0.2,1.1,0.1,3.5-0.5,7.2c-0.5,4.8-1.4,8.8-2.8,12c-0.6,1.4-1.3,3-2.3,4.8c-1,1.9-2.5,4.3-4.3,7.4l-3.8,6.2   c-2.1,3.8-3.5,8.1-4.3,12.9c-0.1,0.5-0.2,1.3-0.4,2.4s-0.3,3.5-0.5,7.1l-0.3,6.1c0,0.4-0.1,1.5-0.4,3.4s-0.3,3.5,0,4.9   C187.6,275.4,188.3,276.5,189.6,277.3z M198.9,195.1h-1.2c-0.1,0.2-0.2,0.5-0.5,0.7c-0.2,0.2-0.4,0.4-0.4,0.5   c0.1,3.1-0.2,7.7-0.7,13.8s-0.8,10.3-0.8,12.6c1.4-1.1,2.6-2.8,3.7-5s1.9-4.8,2.4-7.8c0.5-2.9,0.5-5.7,0.1-8.3   C201,199,200.2,196.8,198.9,195.1z"></path>
	<path fill="#FFFFFF" stroke="#FFFFFF" stroke-miterlimit="10" d="M240.2,237.6c-0.6,0.6-1.3,1.1-2,1.4s-1.8,0-3.2-0.8   s-2.6-1.2-3.5-1.1c-1.4,0.2-3.2,1.9-5.3,5.3c-1.9,3.2-3.5,6.9-4.8,11.2l-1.6,4c-0.6,2.6-0.8,5-0.4,7s1.1,3.4,2.3,4   c1.2,0.7,2.8,0.5,4.9-0.5c1.9-0.9,3.3-1.8,4.2-2.8s2.1-2.7,3.7-5.3c0.2-0.3,1.1-1.4,2.6-3.2s2.4-3.3,2.7-4.3l1.6-6l2.3-8   c0.2-0.5,0.4-1.1,0.6-1.6c1.1-3,2.2-5,3.3-6c1.1-0.9,2.4-1.3,3.9-1.3c1.4,0.1,2.6,0.6,3.5,1.7c0.9,1,1.5,1.7,1.6,1.9   c0.4,2.2,0.6,5,0.5,8.2s-0.5,7.7-1.4,13.5l-1.5,11.7c-0.1,0.9-0.1,3.6,0,8.1s-0.3,8-1.2,10.3c0,0.7,0.3,1.5,0.8,2.4   s0.8,1.7,0.8,2.4c-0.4,0.6-1,1.2-1.7,1.9c-0.8,0.7-1.4,1.3-1.9,1.7c-0.7-0.2-1.9-0.5-3.5-0.7s-2.7-0.4-3.2-0.5   c-0.3-0.5-1-1.3-2.1-2.4s-1.9-2-2.4-2.8s-0.9-1.6-1.1-2.4c-0.4-1.4-0.6-3.9-0.7-7.6s-0.5-6.4-1.3-8.1c-1.7,0.7-3.6,2.2-5.8,4.5   c-2.2,2.2-3.9,3.7-5.2,4.3s-2.5,0.9-3.6,0.9h-2.2c-2.4-0.2-5-1.3-7.8-3.5s-4.6-4.3-5.5-6.5c-1.4-3.5-1.5-7.9-0.4-13s3-9.8,5.6-14   c1.4-2.2,3.2-4.5,5.6-7s4.3-4,5.7-4.7c1.6-0.7,3.6-1.1,5.9-1.1s4.4,0.5,6.1,1.4s3,2.1,3.9,3.4C239.7,234.9,240.2,236.3,240.2,237.6   L240.2,237.6z M284.6,249.9c0.9-0.6,1.7-1.4,2.5-2.5s2.2-3.4,4.3-6.9s3.8-5.9,5-7.2c1.3-1.2,2.5-2,3.7-2.3c3-0.9,5.5-0.5,7.6,1.1   s3.5,3.7,4,6.2c0.6,2.6,0.7,4.8,0.4,6.7l-0.5,3c-0.3,1.4-1.2,5.1-2.9,11.1l-3,11.4c-0.4,1.6-0.6,3.4-0.8,5.2   c-0.2,1.9-0.3,3.5-0.3,5c0.6,0.2,1.1,0.1,1.7-0.1s1.3-0.8,2-1.8s1.2-1.5,1.4-1.7c1.8-2,3.7-4.3,5.5-6.9l5.9-8.5l4.3-6.2l4-5.3   c0.1-0.1,1-1.6,2.8-4.5s3.8-4.4,6.1-4.3c0.2,1.2,0.1,2.5-0.3,3.9s-1.5,2.8-3.2,4.3l-3,2.6c-0.4,1.4-1,2.8-1.7,4.1   c-0.9,1.4-1.8,2.8-2.7,4.2c-1,1.5-1.7,2.4-1.9,2.8c-0.2,0.2-0.9,1.4-2.2,3.5s-2.3,3.6-3,4.6l-5.6,7.2l-7.6,9.6   c-2,2.5-3.5,3.9-4.5,4.1c-1.7,0.3-3.4-0.1-5.1-1.4c-1.7-1.2-3.1-2.7-4.1-4.3c-0.5-0.8-1-1.9-1.6-3.1s-0.7-3.6-0.5-6.9   c0.3-3.9,1.5-10,3.7-18.1c2.1-8.1,3.3-14.2,3.5-18.1c-0.6,0-1.1,0.2-1.7,0.6s-1.2,1.1-1.9,2.1c-0.6,1-1,1.6-1.2,1.7l-4,4.8   c-0.7,3.4-1.5,6-2.4,8.1c-0.4,0.8-1.1,1.8-2,3.1c-1,1.3-1.6,2.2-1.9,2.9c-0.6,1.2-1.4,3.5-2.3,6.9s-1.7,5.8-2.5,7.3   c-0.8,1.4-1.7,2.6-3,3.5c-2.2,0.2-3.9-0.2-5.3-1.1s-2.3-2.1-2.9-3.6s-0.9-3.4-0.9-5.6s0.2-5.1,0.7-8.5l0.8-5.7   c0.1-0.6,0.5-5,1.3-13.3s2-14,3.5-17.1c2.2-0.7,3.9-0.7,5.2-0.1s2.3,1.9,3,3.6s1.2,4.8,1.6,9.2s0.8,7.2,1.1,8.3   C284.2,248.9,284.5,249.6,284.6,249.9z"></path>
	<path fill="#FFFFFF" stroke="#FFFFFF" stroke-miterlimit="10" d="M350.4,237.1c-0.6-0.2-1.1-0.1-1.6,0.2s-1,1.1-1.4,2.3   s-0.8,2-1,2.3c-0.3,0.6-0.9,1.4-1.8,2.6s-1.5,2.1-1.8,2.7l-1.6,4.8c-0.2,0.3-0.5,1-1.1,1.9c-0.6,1-0.9,1.6-1,2   c-0.1,0.4-0.1,1.1-0.1,2s0.1,1.6,0.1,2c0,0.2-0.3,1.4-0.8,3.9c-0.5,2.4-0.5,4.5-0.1,6.2c0.6,2.2,1.7,4,3.5,5.2s4,1.5,6.5,0.8   c1.4-0.4,3.3-1.9,5.7-4.4l3.9-4l3.6-2.4c0.2-0.2,0.8-1.2,1.7-3c0.9-1.7,1.9-2.6,3.1-2.7c2.2-3.7,5.2-8.2,9.1-13.6   c0.1-0.1,0.4-0.4,0.8-1.1c0.5-0.6,1-1.2,1.5-1.6s1.1-0.6,1.7-0.6c0.3,0.8,0.4,1.7,0.1,2.8c-0.2,1.1-1,2.4-2.2,3.9l-2,2.5   c-7.3,10.2-13.4,17.9-18.4,23.2c-1.2,0.6-2.7,1.7-4.4,3.2s-3.1,2.5-4.2,3c-1,0.5-1.8,0.9-2.3,1c-1.5,0.6-2.9,1.1-4.2,1.3   c-1.3,0.2-2.6,0.2-3.9-0.1c-1.1-0.2-2.5-0.8-4.2-1.6s-2.8-1.5-3.4-2c-2-1.5-3.6-3.9-4.8-7c-1.2-3.2-1.7-6.7-1.7-10.6   c0-3.5,0.7-7.2,2-11.4c1.3-4.1,3-7.9,5-11.2c2-3.4,4-6,5.8-7.8s3.4-3,4.9-3.7c2.3-1.1,4.8-1.6,7.4-1.6c2.7,0,5,0.5,6.8,1.6   c1.8,1,3,2.6,3.5,4.8c0.3,1.3,0.4,3,0.2,5.1s-0.6,4.3-1.4,6.5s-1.5,3.5-2,3.6c-0.7,0.2-1.4,0.3-2.1,0.1s-1.2-0.6-1.5-1.4   s-0.6-2.5-0.7-5.2C351.9,239.3,351.4,237.7,350.4,237.1L350.4,237.1z"></path>
	<path fill="#FFFFFF" stroke="#FFFFFF" stroke-miterlimit="10" d="M426,239.3c0.2,0.5,0.3,1,0.2,1.6s-0.5,1.3-1.1,2.1   s-1.1,1.3-1.1,1.5l-2.8,5.3l-3.6,4.3c-0.3,0.4-0.8,1.2-1.3,2.4c-0.6,1.2-1,2-1.4,2.4c-0.7,0.9-2.1,2.2-4.1,4.1s-3.5,3.3-4.3,4.5   c-1.6,1.9-3.9,3.9-6.8,6l-4,3.1c-0.3,0.2-1,0.5-2.1,0.8s-1.9,0.6-2.3,0.8c-0.5,0.2-1.1,0.7-1.9,1.3s-1.3,1-1.7,1.1   c-5.8,1.4-10.5,0.1-14.1-4.1c-2-2.3-3.4-4.9-4.1-7.6s-0.8-6.3-0.4-10.8c0.2-1.8,0.8-4,1.7-6.4s2.3-5,4.1-7.8   c1.8-2.7,3.8-5.2,5.8-7.5c0.5-0.5,1.4-1.6,2.8-3.4s2.5-3.1,3.4-3.8s1.8-1.3,2.7-1.7c2.9-1.1,5.6-1.3,8.2-0.5s4.6,2.1,5.9,4   s1.8,4.1,1.5,6.7c-0.2,1-0.5,2-1.1,3.1s-1.5,2.3-2.7,3.5s-3.9,3.4-8.2,6.5c-0.6,0.4-1.9,1.3-4,2.6s-3.6,2.5-4.4,3.6   s-1.3,2.4-1.6,3.9s-0.3,3.4-0.1,5.6c0.3,3.1,0.9,5,1.8,5.6s1.8,1,2.7,1.2c2.2,0.2,5.4-1,9.6-3.6c2.8-1.8,5.8-4.5,9.1-7.9   s7.3-8.6,12.2-15.5c0.2-0.3,0.8-1.3,1.7-2.8c0.9-1.6,1.8-2.7,2.8-3.4C423.9,239.5,424.9,239.2,426,239.3L426,239.3z M400.4,236.1   c-0.1-0.8-0.5-1.5-1.1-2c-0.7-0.6-1.4-1-2.2-1.1c-1.2-0.1-2.3,0.4-3.4,1.6s-1.9,2.8-2.5,5s-1.1,4.5-1.3,6.6c1,0.2,2.2-0.2,3.8-1   s3.1-2.3,4.6-4.3C399.9,238.9,400.6,237.3,400.4,236.1z M53.5,364.4l-7.2,9.4l11.4-2.7c0.3-0.1,0.6-0.2,0.7-0.3   c0.3-0.2,0.3-0.5,0.1-1c-0.1-0.2-0.3-0.4-0.4-0.5c-0.2-0.3-0.4-0.5-0.4-0.5c-0.4-0.6-0.3-1.1,0.3-1.5s1.2-0.2,1.7,0.6   c0.1,0.1,0.2,0.3,0.3,0.6l0.5,1.1c0.1,0.3,0.3,0.6,0.5,0.9s0.6,0.8,1,1.3c0.5,0.5,0.8,1,1,1.3c0.5,0.8,0.5,1.4-0.1,1.8   s-1.1,0.3-1.5-0.3c-0.1-0.2-0.2-0.3-0.2-0.5c-0.1-0.3-0.2-0.5-0.2-0.5c-0.2-0.4-0.9-0.4-2.1-0.1l-12,2.3c-2.6,0.5-4.7,0.8-6.1,0.6   c-2.4-0.2-4.3-1.2-5.5-3.1c-0.7-1.1-1.1-2.3-1-3.4s0.5-2,1.3-2.5c0.6-0.4,1.1-0.5,1.7-0.4s1.1,0.4,1.4,0.9c0.3,0.4,0.4,0.9,0.3,1.3   s-0.3,0.8-0.6,1c-0.6,0.4-1.1,0.4-1.7,0c-0.2,0.5-0.1,1.2,0.4,2c0.6,1,1.6,1.6,2.8,1.9s2.3,0.1,3.2-0.5c0.5-0.3,1.1-1.1,2.1-2.5   l5.7-8.1l0.7-0.9c0.6-0.9,0.8-1.5,0.5-1.9c-0.1-0.1-0.2-0.3-0.5-0.5c-0.2-0.3-0.4-0.4-0.4-0.5c-0.4-0.6-0.4-1.2,0.2-1.5   c0.6-0.4,1.2-0.2,1.8,0.6c0.2,0.3,0.3,0.5,0.4,0.7l0.6,1.2c0,0,0.1,0.1,0.1,0.2c0.1,0.1,0.1,0.3,0.2,0.4c0.4,0.7,0.9,1.3,1.5,2   l0.9,1.1c0.5,0.8,0.5,1.4-0.1,1.8s-1.1,0.2-1.6-0.5c-0.1-0.1-0.2-0.3-0.3-0.6s-0.2-0.5-0.3-0.6c-0.2-0.3-0.4-0.3-0.6-0.1   C53.9,364,53.7,364.1,53.5,364.4L53.5,364.4z M62.6,399.6c-1.5-1.8-2.1-3.7-1.9-5.8s1.5-4,3.5-5.8c2-1.8,4.1-2.6,6.2-2.6   s4,0.9,5.5,2.7c1.6,1.8,2.2,3.8,2,5.9c-0.3,2.1-1.4,4-3.5,5.8c-2,1.8-4.1,2.6-6.3,2.6C66,402.3,64.2,401.4,62.6,399.6L62.6,399.6z    M74.4,389.6c-1-1.2-2.2-1.7-3.6-1.7s-2.9,0.7-4.4,1.9l-0.3,0.3c-1.6,1.4-2.5,2.8-2.8,4.2s0,2.8,1.1,3.9c1.1,1.2,2.3,1.8,3.8,1.7   s3-0.8,4.6-2.2C76.1,394.8,76.6,392.1,74.4,389.6L74.4,389.6z M89.4,424.2l0.7-0.8c-2,0.4-3.8-0.1-5.5-1.6c-2-1.7-2.8-3.5-2.5-5.4   c0.1-0.8,0.5-1.6,1.1-2.4c0.3-0.4,0.9-1.1,1.9-2.2l1.8-2.1c2-2.3,2.8-3.6,2.3-4c-0.1-0.1-0.3-0.2-0.5-0.4s-0.4-0.3-0.5-0.4   c-0.6-0.5-0.6-1-0.2-1.6c0.5-0.5,1-0.5,1.8,0.2c0.2,0.1,0.4,0.4,0.7,0.7s0.5,0.6,0.7,0.7c0.1,0.1,0.4,0.3,0.8,0.6   c0.3,0.2,0.4,0.3,0.5,0.3c0.5,0.5,0.5,1-0.1,1.6l-0.5,0.5l-1.4,1.6l-1.7,1.8l-1.4,1.6c-1.3,1.5-2.1,2.6-2.4,3.4   c-0.5,1.4-0.1,2.7,1.4,4c0.7,0.6,1.5,1,2.3,1.2s1.6,0.1,2.3-0.3c0.8-0.4,2-1.5,3.6-3.3l1.2-1.4l1.4-1.6c0.6-0.9,0.8-1.5,0.4-1.8   c-0.2-0.2-0.3-0.3-0.5-0.4l-0.3-0.3c-0.6-0.5-0.6-1-0.2-1.5c0.5-0.6,1.1-0.6,1.7,0l0.6,0.6l0.6,0.6c0.1,0.1,0.4,0.3,0.6,0.5   s0.5,0.4,0.6,0.5c0.5,0.4,0.5,0.9,0,1.5l-0.5,0.5l-2.6,2.7l-3.4,3.8l-1.5,1.7c-0.7,1-0.9,1.6-0.5,1.9c0.1,0.1,0.3,0.2,0.5,0.4   s0.4,0.3,0.5,0.4c0.6,0.5,0.6,1,0.1,1.6s-1.1,0.5-1.8-0.1c-0.1-0.1-0.4-0.3-0.6-0.6c-0.4-0.4-0.6-0.7-0.7-0.8c0,0-0.2-0.2-0.6-0.4   c-0.2-0.1-0.4-0.2-0.6-0.4C89,425.1,89,424.6,89.4,424.2L89.4,424.2z M116.4,426.2l-0.5,0.8c1.9-0.7,3.6-0.5,5.2,0.6   c1.3,0.9,2.1,1.9,2.4,3.2s0.1,2.5-0.7,3.6c-0.5,0.8-1.2,1.3-1.9,1.6s-1.5,0.1-2.1-0.3c-0.4-0.3-0.7-0.6-0.8-1.1s-0.1-0.9,0.2-1.2   c0.2-0.3,0.5-0.5,0.9-0.6s0.7,0,1,0.2c0,0,0.2,0.1,0.3,0.3c0.3-0.1,0.5-0.3,0.6-0.5c0.4-0.5,0.4-1.1,0.2-1.8s-0.7-1.3-1.4-1.7   c-1.4-1-2.8-1-4.2,0c-0.8,0.6-1.8,1.7-2.9,3.3l-1.2,1.8l-1.4,2.1c-0.6,1.1-0.7,1.8-0.2,2.1c0.2,0.2,0.5,0.3,0.8,0.4l0.6,0.3   c0.6,0.4,0.7,0.9,0.3,1.5s-1,0.7-1.8,0.2l-0.1-0.1c-0.4-0.3-0.8-0.6-1.2-0.9c-0.5-0.4-0.9-0.8-1.2-0.9c-0.7-0.5-1.3-0.9-1.8-1.1   l-1.6-0.9c-0.8-0.5-0.9-1.1-0.5-1.7s0.9-0.6,1.6-0.1c0.2,0.1,0.3,0.2,0.4,0.3l0.4,0.4c0.2,0.2,0.3,0.3,0.4,0.3   c0.5,0.3,1,0.1,1.6-0.8l1-1.4l4.1-6.3c0.7-1.1,0.8-1.8,0.3-2.2c-0.1-0.1-0.4-0.2-0.7-0.3s-0.5-0.2-0.7-0.3   c-0.6-0.4-0.7-0.9-0.3-1.5s1-0.7,1.8-0.2c0.2,0.1,0.4,0.3,0.8,0.6c0.3,0.3,0.6,0.5,0.8,0.6c0.1,0.1,0.4,0.2,0.8,0.4   c0.2,0,0.4,0.1,0.6,0.3C116.7,425.2,116.8,425.6,116.4,426.2L116.4,426.2z M147.1,445.8l-4.4,9.3c-0.5,1-0.4,1.7,0.1,1.9   c0.1,0.1,0.4,0.1,0.8,0.2c0.3,0.1,0.4,0.1,0.5,0.2c0.7,0.3,0.8,0.8,0.5,1.5s-0.9,0.8-1.7,0.4c-0.3-0.2-0.8-0.4-1.5-0.8l-1.5-0.9   c-0.5-0.2-1-0.4-1.5-0.6c-0.7-0.3-1.2-0.4-1.5-0.5l-0.1-0.1c-0.8-0.4-1.1-1-0.7-1.7c0.3-0.6,0.8-0.8,1.5-0.4c0,0,0.1,0,0.2,0.1   s0.2,0.1,0.2,0.2l0.8,0.6c0.4,0.2,0.7,0.1,0.9-0.1c0.2-0.3,0.7-1,1.3-2.3l1-2.1l2.2-4.7l2.5-5.4c0.3-0.6,0.4-1,0.5-1.2   c0.1-0.5-0.1-0.9-0.5-1.1c-0.1,0-0.3-0.1-0.8-0.2c-0.2-0.1-0.4-0.1-0.6-0.2c-0.7-0.3-0.9-0.8-0.6-1.4c0.3-0.7,0.9-0.8,1.7-0.4   c0.2,0.1,0.4,0.2,0.5,0.3l0.7,0.4c0.3,0.2,0.6,0.3,0.8,0.5c0.2,0.1,0.5,0.2,0.9,0.3s0.7,0.2,0.9,0.3c0.5,0.2,0.5,0.6,0.3,1.2   c-0.1,0.2-0.2,0.3-0.2,0.4C149.5,440.8,148.4,443,147.1,445.8L147.1,445.8z M161.1,467.1c-2.2-0.8-3.7-2.2-4.4-4.2   c-0.8-2-0.7-4.2,0.2-6.8s2.3-4.3,4.2-5.4c1.9-1,3.9-1.1,6.1-0.4c2.3,0.8,3.8,2.2,4.6,4.1c0.8,2,0.7,4.2-0.2,6.7s-2.3,4.3-4.2,5.4   C165.4,467.8,163.4,468,161.1,467.1L161.1,467.1z M166.5,452.6c-1.5-0.5-2.8-0.4-4,0.3s-2.2,2-2.9,3.9l-0.1,0.4   c-0.7,2-0.8,3.6-0.4,5s1.4,2.4,2.9,2.9s2.9,0.4,4.2-0.4s2.2-2.2,3-4.2C170.5,456.4,169.7,453.7,166.5,452.6L166.5,452.6z    M193.9,464.6c0.2-0.9,0.9-1.2,2-1.1c0.1-0.8-0.2-1.5-0.7-2c-0.6-0.6-1.4-1-2.2-1.2c-1.5-0.3-2.8,0-4,1s-2,2.5-2.4,4.4   c-0.5,2-0.4,3.7,0.2,5.1c0.6,1.3,1.6,2.2,3.1,2.5c1,0.2,1.8,0.1,2.7-0.2c0.8-0.4,1.5-1,1.9-1.9l0.7-1.2c0.3-0.4,0.7-0.5,1.2-0.4   c0.4,0.1,0.6,0.3,0.8,0.6s0.2,0.6,0.1,1c-0.1,0.5-0.4,1.2-1,1.8c-0.5,0.7-1.1,1.2-1.6,1.6c-1.6,1.1-3.4,1.4-5.4,0.9   c-2.2-0.5-3.8-1.7-4.8-3.5s-1.2-4-0.6-6.6c0.6-2.7,1.8-4.7,3.5-6c1.8-1.3,3.8-1.7,6.1-1.2c1.7,0.4,3,1.2,4,2.4s1.2,2.5,0.9,4   c-0.2,0.8-0.5,1.4-1.1,1.8s-1.2,0.5-1.9,0.4c-0.5-0.1-1-0.4-1.2-0.8C193.9,465.5,193.8,465.1,193.9,464.6L193.9,464.6z M224,480.4   c-1.8-0.2-2.8-1.1-3.1-2.7c-1.3,1.5-3.1,2.2-5.5,2c-1.8-0.2-3.2-0.8-4.1-1.7c-1-1-1.4-2.2-1.2-3.7c0.2-1.8,1.1-3.1,2.7-3.8   c0.6-0.3,1.2-0.4,1.6-0.5s1.3-0.1,2.6-0.1c1.9,0,3.1-0.2,3.7-0.5s0.9-0.9,1-1.9c0.1-0.9-0.1-1.6-0.7-2.2s-1.4-0.9-2.5-1   c-1-0.1-1.9,0.1-2.9,0.5c-0.4,0.2-0.5,0.4-0.6,0.6c0,0.1,0.1,0.2,0.3,0.4c0.3,0.2,0.4,0.6,0.4,1.2c0,0.4-0.2,0.8-0.6,1   c-0.4,0.2-0.8,0.4-1.2,0.3c-0.6-0.1-1-0.3-1.4-0.7s-0.5-0.9-0.4-1.5c0.1-1.2,0.8-2.2,2.1-3s2.8-1,4.6-0.9c4,0.4,5.8,2.5,5.4,6.4   l-0.6,6.7l-0.1,1.9c0.1,0.8,0.4,1.2,1,1.3c0.8,0.1,1.2-0.6,1.4-2l0.2-1.6c0.1-0.7,0.4-1,1.1-1c0.7,0.1,1,0.6,0.9,1.7v0.2l-0.2,1.9   C227.5,479.7,226.2,480.6,224,480.4L224,480.4z M221,473.5l0.2-2.3c-0.5,0.4-1.1,0.7-1.6,0.8s-1.5,0.2-2.9,0.2   c-2.5,0-3.9,0.8-4,2.4c-0.1,0.8,0.1,1.5,0.7,2.1s1.4,0.9,2.4,1c1.5,0.2,2.7-0.1,3.6-0.9C220.3,475.9,220.9,474.9,221,473.5   L221,473.5z M242.9,466.7V477c0,1.1,0.3,1.7,0.9,1.7c0.1,0,0.4-0.1,0.8-0.2c0.3,0,0.5-0.1,0.5-0.1c0.7,0,1.1,0.4,1.1,1.1   s-0.5,1.1-1.4,1.1c-0.4,0-0.9,0-1.7-0.1s-1.4-0.1-1.8-0.1s-0.9,0-1.6,0.1s-1.2,0.1-1.5,0.1H238c-0.9,0-1.4-0.4-1.4-1.2   c0-0.7,0.4-1,1.1-1h0.2h0.3l1,0.2c0.4,0,0.6-0.2,0.8-0.5c0.1-0.3,0.2-1.2,0.2-2.7v-2.3v-5.2V462c0-0.7-0.1-1.1-0.1-1.3   c-0.2-0.5-0.5-0.8-0.9-0.8c-0.1,0-0.4,0-0.9,0.1c-0.2,0-0.4,0.1-0.6,0.1c-0.8,0-1.1-0.3-1.1-1.1c0-0.7,0.4-1.1,1.3-1.1h0.6l0.8,0.1   c0.4,0,0.6,0.1,0.9,0.1c0.2,0,0.5,0,1-0.1c0.4-0.1,0.8-0.1,1-0.1c0.5,0,0.8,0.3,0.8,1v0.5L242.9,466.7L242.9,466.7z M277.9,466.6   c-0.1-0.9,0.3-1.5,1.4-1.8c-0.2-0.8-0.7-1.3-1.4-1.6s-1.5-0.4-2.5-0.3c-1.5,0.2-2.6,1-3.4,2.4c-0.7,1.3-1,3-0.6,5   c0.3,2.1,1,3.6,2,4.6s2.3,1.4,3.9,1.2c1-0.2,1.8-0.5,2.4-1.2s1-1.5,1.1-2.5l0.2-1.4c0.2-0.5,0.5-0.8,1-0.8c0.4-0.1,0.7,0,1,0.2   s0.4,0.5,0.5,0.9c0.1,0.5,0,1.2-0.2,2s-0.5,1.5-1,2.1c-1.1,1.6-2.6,2.5-4.7,2.8c-2.2,0.3-4.1-0.2-5.8-1.5c-1.6-1.4-2.6-3.3-3-5.9   c-0.4-2.7,0-5,1.1-6.8s2.9-2.9,5.2-3.3c1.8-0.3,3.3,0,4.6,0.8s2.1,1.9,2.3,3.4c0.1,0.8,0,1.5-0.4,2.1c-0.3,0.6-0.9,0.9-1.6,1   c-0.5,0.1-1,0-1.4-0.3C278.2,467.5,278,467.1,277.9,466.6L277.9,466.6z M305.3,472.3c-2.2,0.6-4.2,0.4-6-0.8s-3-3-3.8-5.7   s-0.6-4.9,0.3-6.8s2.5-3.2,4.8-3.8s4.4-0.4,6.1,0.7s3,3,3.7,5.6s0.6,4.9-0.3,6.8S307.6,471.7,305.3,472.3L305.3,472.3z    M301.2,457.3c-1.5,0.4-2.5,1.3-3.1,2.6s-0.6,2.9-0.2,4.8l0.1,0.4c0.6,2,1.4,3.5,2.6,4.4s2.5,1.1,4,0.7s2.6-1.3,3.2-2.7   s0.6-3.1,0-5.1C306.7,458.1,304.5,456.4,301.2,457.3L301.2,457.3z M320.5,457.5c-0.3-0.7,0-1.2,0.8-1.6l4.8-1.9   c0.8-0.3,1.4-0.1,1.6,0.6c0.3,0.7,0,1.3-0.8,1.6l-4.8,1.9C321.3,458.4,320.8,458.2,320.5,457.5z M342.6,444.5l7,7.7l-3.3-11.5   c-0.4-1.2-0.5-2.1-0.4-2.6s0.4-0.9,1-1.2s1.1-0.4,1.6-0.2s1.1,0.8,2,1.7l7.8,9l-2.7-10l-0.6-1.6v-0.1c-0.3-0.5-0.7-0.7-1.1-0.4   c-0.2,0.1-0.4,0.3-0.7,0.5s-0.5,0.4-0.7,0.5c-0.7,0.4-1.2,0.3-1.6-0.4s-0.1-1.3,0.9-1.8c0.1-0.1,0.3-0.1,0.5-0.2l1.3-0.5   c0.3-0.1,0.8-0.4,1.5-0.7l1.5-0.9l0.9-0.7c0.1-0.1,0.2-0.1,0.3-0.2c0.8-0.5,1.4-0.4,1.8,0.3c0.4,0.6,0.2,1.1-0.4,1.5   c-0.2,0.1-0.4,0.2-0.5,0.2c-0.3,0.1-0.5,0.2-0.6,0.2c-0.5,0.3-0.5,1.7,0.2,4.1l2.2,8.6c0.3,1,0.3,1.8,0.2,2.4s-0.4,1-1,1.2   c-1,0.6-2.2,0.1-3.4-1.3l-7.9-9.1l3.3,11.4c0.3,1.1,0.4,1.9,0.3,2.5s-0.5,1-1,1.3c-0.9,0.5-1.8,0.2-2.8-0.8l-8.5-9   c-0.5-0.5-1-0.7-1.3-0.5c-0.1,0.1-0.3,0.2-0.5,0.4c-0.3,0.2-0.5,0.4-0.6,0.4c-0.6,0.4-1.1,0.2-1.5-0.4c-0.4-0.7-0.1-1.3,0.7-1.8   c0.2-0.1,0.3-0.1,0.3-0.1l1.4-0.5c0.3-0.1,0.7-0.3,1.1-0.5l1.8-1.1l1.4-1c0.8-0.5,1.5-0.4,1.8,0.3c0.4,0.6,0.2,1.2-0.5,1.6   c-0.1,0.1-0.4,0.2-0.8,0.3c-0.3,0-0.6,0.1-0.8,0.3c-0.5,0.3-0.6,0.7-0.3,1.3C341.8,443.6,342.1,444,342.6,444.5L342.6,444.5z    M385.6,432c-1.8,1.4-3.8,1.9-5.9,1.5s-4-1.7-5.6-3.8c-1.7-2.1-2.4-4.3-2.3-6.4s1.1-3.9,3-5.4s3.9-2,6-1.6s3.9,1.7,5.6,3.8   s2.4,4.3,2.3,6.5S387.5,430.5,385.6,432z M376.3,419.6c-1.2,1-1.9,2.1-1.9,3.5s0.5,2.9,1.7,4.5l0.3,0.3c1.3,1.6,2.6,2.7,4,3.1   s2.7,0.1,4-0.8c1.3-1,1.9-2.2,1.9-3.7s-0.6-3.1-1.9-4.7C381.6,418.2,378.9,417.5,376.3,419.6L376.3,419.6z M394.3,403.1l0.6,0.6   c-0.3-2,0.2-3.6,1.6-5c1.1-1.1,2.3-1.6,3.6-1.7c1.3,0,2.4,0.4,3.4,1.4c0.7,0.7,1.1,1.4,1.1,2.2c0.1,0.8-0.2,1.4-0.7,2   c-0.4,0.4-0.8,0.5-1.2,0.6c-0.5,0-0.9-0.1-1.2-0.4c-0.3-0.3-0.4-0.6-0.4-1c0-0.4,0.1-0.7,0.4-1l0.4-0.2c-0.1-0.3-0.2-0.5-0.4-0.7   c-0.5-0.5-1-0.6-1.7-0.6c-0.7,0.1-1.4,0.4-2,1c-1.2,1.2-1.5,2.6-0.8,4.1c0.4,0.9,1.3,2.1,2.6,3.5l1.5,1.6l1.8,1.8   c1,0.8,1.7,1,2.1,0.6c0.2-0.2,0.4-0.4,0.6-0.7c0.1-0.2,0.3-0.4,0.4-0.5c0.5-0.5,1-0.5,1.5,0s0.5,1.1-0.2,1.8l-0.1,0.1   c-0.2,0.2-0.6,0.5-1.2,1l-1.2,1l-1.4,1.5l-1.2,1.4c-0.7,0.6-1.2,0.7-1.8,0.1c-0.5-0.5-0.4-1,0.2-1.6c0.2-0.2,0.3-0.3,0.4-0.3   l0.4-0.3c0.2-0.1,0.3-0.2,0.4-0.3c0.4-0.4,0.3-1-0.4-1.7l-1.2-1.2l-5.3-5.3c-1-0.9-1.7-1.1-2.1-0.7c-0.1,0.1-0.3,0.3-0.5,0.6   s-0.3,0.5-0.5,0.6c-0.5,0.5-1,0.5-1.5,0s-0.5-1.2,0.2-1.8c0.2-0.1,0.4-0.4,0.8-0.6s0.6-0.5,0.8-0.6c0.1-0.1,0.3-0.3,0.6-0.7   c0.1-0.2,0.2-0.3,0.4-0.5C393.4,402.6,393.9,402.7,394.3,403.1L394.3,403.1z"></path>
	<path fill="#FFFFFF" stroke="#FFFFFF" stroke-miterlimit="10" d="M417.7,388.4l-0.7-7.7c0-0.3-0.1-0.5-0.3-0.6s-0.3-0.1-0.5,0.1   c-0.1,0.2-0.3,0.5-0.5,0.8c-0.2,0.4-0.4,0.7-0.5,0.8c-0.5,0.6-1,0.7-1.5,0.2c-0.6-0.5-0.6-1.1,0-1.9c0.2-0.2,0.4-0.4,0.6-0.7   l2.4-2.6l0.7-0.9l0.7-1.2l0.4-0.6c0.7-0.9,1.3-1,1.9-0.6c0.6,0.5,0.6,1,0.2,1.5l-0.5,0.5l-0.5,0.5c-0.3,0.4-0.5,1.1-0.4,1.9   l0.3,4.7c0,0.3,0.1,0.5,0.2,0.6s0.3,0.1,0.5,0.1l7,0.1c1.8,0,2.8-0.2,3.1-0.5c0.1-0.1,0.2-0.2,0.3-0.5c0.1-0.2,0.2-0.4,0.3-0.5   c0.5-0.6,1-0.7,1.6-0.3c0.6,0.5,0.6,1.1-0.1,1.9c-0.2,0.3-0.7,0.8-1.2,1.3l-1.2,1.3c-0.2,0.3-0.5,0.7-0.8,1.3s-0.6,1-0.8,1.3   c-0.5,0.7-1.1,0.8-1.7,0.3c-0.5-0.4-0.6-1-0.1-1.6c0.1-0.2,0.3-0.3,0.3-0.4c0.3-0.2,0.5-0.4,0.6-0.5c0.1-0.2,0.1-0.3,0-0.4   l-0.1-0.1h-0.1h-0.6h-0.8l-5.5-0.1c-0.4,0-0.6,0-0.7,0.1c0,0.1-0.1,0.3,0,0.6l0.2,3.3l0.6,0.5c0.8,0.7,1.3,1,1.4,1.1   c0.7,0.4,1.2,0.4,1.5,0c0.1-0.2,0.2-0.3,0.3-0.5s0.2-0.3,0.3-0.5c0.5-0.6,1-0.7,1.6-0.2s0.6,1,0.1,1.7c-0.2,0.3-0.6,0.7-1.2,1.2   l-1.2,1.3c-0.3,0.4-0.6,0.9-1,1.5c-0.4,0.7-0.7,1.2-0.9,1.4c-0.5,0.7-1.1,0.8-1.7,0.3s-0.6-1-0.1-1.7c0.1-0.1,0.3-0.3,0.4-0.5   c0.3-0.2,0.5-0.4,0.5-0.5c0.3-0.4,0.2-0.9-0.4-1.5l-1-0.9l-10.5-8.3l-1.9-1.2c-0.3-0.1-0.6,0-0.8,0.2c-0.1,0.1-0.2,0.3-0.3,0.5   c-0.1,0.3-0.3,0.6-0.5,0.8c-0.5,0.6-1,0.7-1.5,0.2c-0.6-0.5-0.6-1-0.1-1.7c0.3-0.4,0.5-0.6,0.6-0.7l0.8-0.8   c0.1-0.1,0.2-0.4,0.4-0.7l0.4-0.6l0.1-0.2c0.4-0.6,1-0.6,1.7,0L417.7,388.4L417.7,388.4z M425.6,360.4c-0.3,0.4-0.7,0.7-1.2,0.8   c-0.5,0.1-1,0-1.4-0.2c-0.4-0.3-0.7-0.7-0.8-1.1c-0.1-0.5,0-1,0.2-1.4c0.3-0.4,0.7-0.7,1.2-0.8c0.5-0.1,1,0,1.4,0.2   c0.4,0.3,0.7,0.7,0.8,1.2C426,359.5,425.9,360,425.6,360.4z M433.9,363.6l3.7,2.3c0.9,0.6,1.5,0.9,1.7,1c0.9,0.4,1.5,0.5,1.7,0   c0.1-0.1,0.2-0.4,0.3-0.8c0-0.1,0.1-0.3,0.2-0.5c0.5-0.7,1-0.9,1.6-0.5c0.3,0.2,0.4,0.4,0.5,0.8c0,0.4,0,0.7-0.3,1.1   c-0.2,0.3-0.5,0.7-1,1.3l-1,1.3c-0.3,0.5-0.6,1.1-0.9,1.7c-0.4,0.8-0.6,1.3-0.8,1.5c-0.5,0.8-1,0.9-1.7,0.5   c-0.6-0.4-0.7-0.9-0.3-1.5c0.1-0.1,0.3-0.4,0.5-0.6c0.2-0.3,0.4-0.5,0.5-0.6c0.3-0.5-0.1-1.1-1.3-2c-0.1,0-0.9-0.6-2.4-1.5   l-2.3-1.5l-2.4-1.5c-1.2-0.6-2-0.7-2.3-0.3c-0.1,0.1-0.2,0.4-0.3,0.7s-0.2,0.5-0.3,0.7c-0.4,0.7-0.9,0.8-1.5,0.5   c-0.6-0.4-0.7-1-0.2-1.8c0.2-0.4,0.4-0.6,0.5-0.7c0.5-0.5,0.7-0.9,0.8-1.1c0.1-0.1,0.2-0.4,0.4-0.7s0.3-0.6,0.4-0.7   c0.3-0.5,0.9-0.6,1.6-0.1c0.1,0,0.2,0.1,0.3,0.2s0.2,0.2,0.3,0.2c0.1,0.1,0.7,0.5,1.7,1.1L433.9,363.6L433.9,363.6z M437.9,344.5   l0.8,0.4c-0.9-1.9-0.9-3.9,0-5.9c0.5-1.1,1.3-2,2.3-2.6c1-0.7,2-1,3-1c0.8,0,1.8,0.3,2.9,0.9l5.7,2.8l1.5,0.7   c0.7,0.2,1.2,0.1,1.4-0.3c0.1-0.2,0.2-0.4,0.3-0.7s0.2-0.5,0.2-0.6c0.1-0.3,0.3-0.4,0.6-0.5c0.3-0.1,0.5-0.1,0.8,0   c0.3,0.1,0.5,0.4,0.6,0.7s0,0.7-0.1,1s-0.4,0.7-0.8,1.3s-0.7,1.2-1,1.7c-0.2,0.5-0.4,1-0.6,1.3l-0.6,1.7c-0.4,0.8-0.9,1-1.6,0.7   c-0.6-0.3-0.8-0.8-0.4-1.5c0.1-0.2,0.2-0.3,0.3-0.5l0.5-0.7c0.2-0.5-0.2-1-1.3-1.6l-1.5-0.7l-1.8-0.9l-2.2-1.2   c-1-0.5-1.8-0.8-2.2-0.9c-0.8-0.2-1.6-0.1-2.3,0.3c-0.8,0.4-1.4,1.1-1.8,1.9c-0.8,1.6-0.8,3,0,4.2c0.5,0.9,1.8,1.7,3.6,2.6l4,1.9   c0.9,0.4,1.5,0.7,1.9,0.7s0.6-0.1,0.8-0.4c0.1-0.2,0.2-0.4,0.2-0.7c0.1-0.3,0.1-0.6,0.2-0.7c0.3-0.6,0.8-0.8,1.5-0.4   c0.7,0.3,0.8,0.9,0.4,1.7c-0.1,0.2-0.4,0.6-0.9,1.5c-0.3,0.4-0.5,0.9-0.8,1.4c-0.2,0.4-0.4,1-0.7,1.7l-0.6,1.6   c-0.4,0.8-1,1.1-1.6,0.8s-0.8-0.8-0.5-1.4c0-0.1,0.2-0.3,0.4-0.5s0.3-0.5,0.5-0.8c0.3-0.6-0.1-1.2-1.3-1.8l-3.3-1.6l-3.6-1.8   l-1-0.5c-0.7-0.3-1.2-0.4-1.5-0.4s-0.5,0.2-0.7,0.5c-0.1,0.1-0.1,0.4-0.2,0.7s-0.2,0.5-0.2,0.7c-0.3,0.7-0.8,0.9-1.5,0.6   s-0.8-0.9-0.3-1.8c0.1-0.1,0.1-0.2,0.2-0.3l0.7-1c0.2-0.3,0.3-0.6,0.3-0.9l0.3-0.8C436.9,344.3,437.3,344.2,437.9,344.5   L437.9,344.5z M449.6,312.1c0.2-0.5,0.5-1.1,0.9-1.8c-2-0.8-2.7-2.3-1.9-4.6c0.3-1,0.8-1.7,1.5-2.2s1.5-0.6,2.2-0.4   c0.5,0.2,0.9,0.5,1.1,0.9s0.3,0.9,0.2,1.3c-0.1,0.3-0.3,0.6-0.6,0.8s-0.6,0.2-0.9,0.1s-0.6-0.5-0.8-1c-0.5,0.2-0.9,0.6-1,1.1   c-0.4,1.1,0.2,1.9,1.5,2.4c1.6-1.2,3.3-1.6,5.1-1c1.5,0.5,2.5,1.4,3.1,2.8s0.7,2.9,0.1,4.6c-0.4,1.2-1,2.3-2,3.3   c-0.3,0.3-0.4,0.5-0.5,0.8s0,0.6,0.1,0.9s0.5,0.5,0.8,0.6c1.1,0.4,2-0.6,2.7-2.8l0.1-0.2c0-0.2,0.1-0.4,0.2-0.6s0.1-0.3,0.1-0.4   c0.7-2,1.4-3.6,2.2-4.7c0.7-1,1.6-1.8,2.6-2.2s1.9-0.5,2.9-0.2c1.5,0.5,2.5,1.6,2.9,3.3s0.2,3.8-0.5,6.2s-1.8,4.2-3.1,5.3   s-2.7,1.4-4.1,0.9c-1.7-0.5-2.6-1.9-2.7-4c-1.2,1.5-2.5,2-3.9,1.6c-1.5-0.5-2.2-1.7-2.2-3.6c-0.9,0.3-1.9,0.3-2.8,0   c-1.4-0.5-2.4-1.4-3-2.8C449,315.3,449,313.8,449.6,312.1L449.6,312.1z M451.7,312.7c-0.3,0.9-0.3,1.8,0,2.6s0.9,1.4,1.7,1.7   l0.2,0.1c0.9,0.3,1.8,0.2,2.5-0.2c0.8-0.5,1.3-1.2,1.7-2.2c0.3-1,0.3-2,0-2.9s-1-1.4-1.8-1.7c-0.9-0.3-1.8-0.2-2.6,0.3   C452.6,311,452,311.7,451.7,312.7L451.7,312.7z M463.9,316.7c-0.5,1.7-0.7,3.1-0.5,4.2s0.7,1.8,1.6,2.1s1.7,0,2.5-0.8s1.5-2,2-3.6   c0.5-1.7,0.7-3.1,0.5-4.2s-0.7-1.9-1.5-2.1c-0.9-0.3-1.7,0-2.5,0.7C465.1,313.8,464.5,315,463.9,316.7L463.9,316.7z M458.2,274.3   c0.2-1.5,0.8-2.6,1.7-3.5h-0.1c-0.8-0.1-1.2-0.5-1.1-1.2s0.5-1,1.2-0.9c0.1,0,0.5,0.1,1,0.2l1.3,0.3c0.3,0,0.7,0.1,1.2,0.1   s0.9,0,1.2,0.1c0.8,0.1,1.2,0.5,1.1,1.2s-0.5,1-1.2,0.9l-1.1-0.1c-0.7-0.1-1.3,0.2-1.8,0.9c-0.6,0.7-0.9,1.5-1.1,2.5   c-0.1,1,0,1.9,0.4,2.6s1,1.2,1.8,1.3c1.4,0.2,2.4-0.7,2.9-2.5l0.5-1.9c1-3.6,2.8-5.3,5.4-5c1.5,0.2,2.8,1,3.6,2.3   c0.8,1.3,1.1,3,0.8,4.9c-0.2,1.8-1,3.3-2.2,4.5c0.2,0,0.4,0.1,0.6,0.1c0.8,0.1,1.1,0.5,1,1.3s-0.6,1.1-1.5,1c0.2,0-0.4-0.1-1.7-0.4   c-0.3-0.1-0.6-0.1-0.9-0.2c-0.5-0.1-1-0.1-1.5-0.1h-1.1c-0.8-0.1-1.1-0.5-1-1.2c0.1-0.5,0.2-0.7,0.5-0.8c0.2-0.1,0.8-0.1,1.8,0   s1.8-0.3,2.5-1.2s1.2-2.1,1.4-3.6c0.2-1.1,0-2-0.5-2.8s-1.1-1.2-1.9-1.3c-1.5-0.2-2.5,0.9-3.1,3.2c-0.5,2.2-1.2,3.9-2,5   s-2,1.5-3.6,1.3c-1.5-0.2-2.7-1-3.5-2.2C458.2,277.7,458,276.1,458.2,274.3L458.2,274.3z M461.6,249.8l1.1,0.1   c-1.6-1.3-2.4-3.1-2.3-5.2c0.1-2.2,1-3.9,2.6-5.1s3.7-1.7,6.3-1.6c2.8,0.2,5,1,6.6,2.5s2.3,3.4,2.2,5.7c-0.1,1.9-0.9,3.4-2.3,4.5   l2.8,0.2c0.8,0,1.4,0.1,1.6,0c0.7-0.1,1-0.4,1.1-0.9c0-0.1,0-0.4-0.1-0.7s-0.1-0.5-0.1-0.7c0-0.7,0.4-1,1.2-1c0.7,0,1.1,0.5,1,1.5   c0,0.3-0.1,0.8-0.2,1.5c-0.1,0.5-0.2,1.2-0.2,2.2v1.3c0,0.9,0.1,1.5,0.1,1.8c0,0.4-0.2,0.7-0.4,0.9s-0.5,0.4-0.8,0.4   c-0.7,0-1-0.4-1-1.2c0-0.1,0-0.3,0.1-0.6c0.1-0.4,0.2-0.6,0.2-0.8c0-0.4-0.2-0.7-0.6-0.8s-1.6-0.3-3.6-0.4l-12.8-0.8   c-1,0-1.5,0.2-1.6,0.8c0,0.1,0,0.4,0.1,0.7s0.1,0.6,0.1,0.8c0,0.8-0.4,1.2-1.2,1.1c-0.7,0-1-0.5-1-1.5c0-0.2,0-0.5,0.1-0.8   c0.1-0.5,0.1-1,0.1-1.2v-0.9v-0.8C460.6,250,460.9,249.7,461.6,249.8L461.6,249.8z M465.6,249.5c1,0.2,2.1,0.4,3.1,0.5   c0.1,0,0.2,0,0.5,0.1h0.5c1.5,0.1,2.6,0,3.2-0.2s1.3-0.6,1.9-1.3s0.9-1.6,1-2.6c0.1-1.6-0.4-2.9-1.5-3.8s-2.7-1.5-4.9-1.6   c-4.4-0.3-6.7,1.1-6.9,4.3c-0.1,1.1,0.2,2,0.8,2.9S464.7,249.3,465.6,249.5L465.6,249.5z M475.4,209.5c0.2,1.8-0.4,3-1.9,3.6   c1.8,0.9,2.8,2.6,3.1,5c0.2,1.8,0,3.2-0.8,4.4s-1.9,1.9-3.3,2c-1.8,0.2-3.3-0.4-4.3-1.9c-0.4-0.5-0.7-1-0.8-1.5   c-0.2-0.4-0.4-1.3-0.7-2.5c-0.4-1.8-0.8-3-1.3-3.5s-1.1-0.7-2-0.6s-1.6,0.5-2,1.2s-0.6,1.6-0.5,2.7c0.1,1,0.5,1.9,1.2,2.7   c0.3,0.3,0.5,0.4,0.8,0.4c0.1,0,0.2-0.1,0.3-0.3c0.2-0.3,0.5-0.5,1.1-0.6c0.4,0,0.8,0.1,1.1,0.3c0.3,0.3,0.5,0.7,0.6,1.1   c0.1,0.6-0.1,1.1-0.4,1.5s-0.8,0.7-1.4,0.8c-1.2,0.1-2.4-0.3-3.4-1.4s-1.7-2.5-1.9-4.3c-0.5-4,1.2-6.2,5-6.7l6.6-0.8   c1-0.1,1.7-0.2,1.9-0.3c0.8-0.2,1.1-0.6,1-1.3c-0.1-0.8-0.8-1.1-2.2-0.9l-1.6,0.2c-0.7,0.1-1.1-0.2-1.2-0.9s0.4-1.1,1.5-1.3h0.2   l1.9-0.2C473.9,206.3,475.1,207.3,475.4,209.5L475.4,209.5z M469.2,213.9l-2.3,0.3c0.5,0.4,0.9,0.9,1.1,1.4s0.5,1.5,0.8,2.8   c0.5,2.5,1.6,3.6,3.2,3.4c0.8-0.1,1.5-0.5,1.9-1.1c0.4-0.7,0.5-1.5,0.4-2.5c-0.2-1.5-0.7-2.6-1.6-3.3   C471.8,214.1,470.7,213.8,469.2,213.9L469.2,213.9z M459.2,187.3c-0.9,0.2-1.5-0.2-1.9-1.2c-0.7,0.3-1.2,0.8-1.5,1.5   s-0.3,1.6,0,2.5c0.4,1.5,1.3,2.5,2.7,3.1s3.1,0.7,5,0.2c2-0.5,3.5-1.3,4.4-2.4s1.2-2.4,0.8-3.9c-0.2-0.9-0.7-1.7-1.4-2.3   s-1.6-0.9-2.6-0.9c-0.8,0-1.3-0.1-1.4-0.1c-0.5-0.1-0.8-0.4-0.9-0.9c-0.1-0.4,0-0.7,0.1-1c0.2-0.3,0.5-0.5,0.8-0.6   c0.5-0.1,1.2-0.1,2.1,0c0.8,0.2,1.6,0.4,2.2,0.8c1.7,0.9,2.8,2.4,3.2,4.4c0.5,2.2,0.2,4.1-1,5.9c-1.2,1.7-3.1,2.9-5.6,3.5   c-2.7,0.7-5,0.5-6.9-0.5s-3.2-2.6-3.8-4.9c-0.4-1.7-0.3-3.3,0.3-4.6c0.7-1.4,1.7-2.2,3.1-2.6c0.8-0.2,1.5-0.1,2.1,0.2   s1,0.8,1.2,1.5c0.1,0.5,0.1,1-0.2,1.5C460,186.9,459.7,187.2,459.2,187.3L459.2,187.3z M450.1,156.4c0.8-0.3,1.3-0.4,1.5-0.4   s0.4,0.3,0.6,0.8l3.8,9.9c0.1,0.3,0.2,0.4,0.3,0.5s0.2,0.1,0.4,0c1.5-0.6,2.7-1.6,3.3-2.9c0.7-1.3,0.8-2.8,0.2-4.1   c-0.3-0.9-0.9-1.6-1.7-2.2s-1.6-0.8-2.5-0.8l-1,0.1c-0.5,0.1-0.9-0.2-1.1-0.7c-0.3-0.8,0-1.3,0.7-1.6c1.3-0.5,2.8-0.3,4.4,0.7   s2.7,2.3,3.3,4.1c0.8,2.2,0.8,4.2-0.2,6s-2.7,3.2-5.1,4.2c-2.5,1-4.8,1.1-6.9,0.3s-3.5-2.2-4.4-4.4c-0.7-1.9-0.7-3.8,0.1-5.6   C446.7,158.5,448.1,157.2,450.1,156.4L450.1,156.4z M453.6,168c0.3-0.1,0.3-0.4,0.2-0.9l-2.8-7.4c-0.2-0.4-0.4-0.6-0.7-0.5   c-1.1,0.4-1.9,1.2-2.4,2.3s-0.5,2.3-0.1,3.4c0.4,1.2,1.3,2.1,2.5,2.7C451.4,168.3,452.6,168.4,453.6,168z"></path>
	<path fill="none" stroke="#FFFFFF" stroke-miterlimit="10" d="M42.2,348.6C-15.3,238.4,27.3,102.5,137.5,45s246.1-14.9,303.6,95.3"></path>
</g>
</svg>
