<?xml version="1.0" encoding="UTF-8"?>
<svg xmlns="http://www.w3.org/2000/svg" xmlns:v="https://vecta.io/nano" width="500" height="500" stroke="#000" stroke-miterlimit="10">
  <path d="M192.9 130.3l-.1 2.6v16.3c0 5.1.3 8.8.9 11 .9 3.3 3 5 6.4 5 2.6 0 4.5-.9 5.6-2.7s1.6-4.8 1.6-9.1v-2.3-.5-.3c0-1.1.4-1.6 1-1.6.7 0 1 .5 1 1.6v1.9c0 3.6-.3 6.5-.8 8.5-1 4-3.8 6-8.5 6-6.2 0-9.3-4.4-9.3-13.3V133c0-1.6-.1-2.7-.4-3.1s-.9-.6-1.9-.6c-.3 0-1.1.1-2.3.1l-1.8.2c-1 0-1.5-.4-1.5-1.1 0-.6.5-.9 1.4-.9.4 0 1 0 1.9.1s1.5.1 1.9.1c1.6 0 2.6-.5 2.9-1.5.2-.6.3-1.6.3-3v-.4c0-2.2.1-3.5.2-4.1.1-.5.4-.8.9-.8.6 0 .9.4.9 1.2v.1l-.2 3.7c-.2.8-.2 1.8-.2 2.9s.8 1.7 2.3 1.7h2.6c.6 0 1.5 0 2.6-.1s2.1-.1 2.6-.1c1 0 1.6.3 1.6 1s-.6 1-1.7 1h-.2l-2.4-.1c-.4 0-1.3-.1-2.6-.1-1.1-.1-1.9-.1-2.6-.1-1.3.1-2 .4-2.1 1.2zm30.2 4.1c1.3-2 2.7-3.5 4-4.6 2.8-2.1 6.2-3.2 10.1-3.2 2.9 0 5.4.6 7.6 1.8 2.4 1.4 4 3.4 4.7 6 .4 1.5.6 4.1.6 7.8v9c0 6 .2 9.7.6 10.9s1.6 1.9 3.6 1.9h1.6 1.6.4c1.1 0 1.7.3 1.7.9s-.5.9-1.5.9h-.2l-2.7-.2-3.2-.2h-2-1.5-2.1l-3.1.2-2.6.2h-.3c-1 0-1.5-.3-1.5-.9s.6-.9 1.7-.9h.4 1.5 1.5c2 0 3.1-.6 3.6-1.9.4-1.2.6-4.9.6-10.9v-8.6c0-2.8-.1-4.8-.2-5.7-.3-2.1-1.1-3.9-2.2-5.2-2-2.3-5-3.5-8.9-3.5-3.6 0-6.7 1.2-9.3 3.5-2.9 2.6-4.4 6.4-4.4 11.2v8.3c0 6 .2 9.6.6 10.9s1.6 1.9 3.5 1.9h1.5 1.5.4c1.1 0 1.7.3 1.7.9s-.5.9-1.5.9h-.2l-2.6-.2-3.1-.2h-2-1.5-2.2l-3.2.2-2.7.2h-.2c-1 0-1.5-.3-1.5-.9s.6-.9 1.7-.9h.4 1.7 1.7c2 0 3.1-.6 3.6-1.9.4-1.2.6-4.9.6-11V124c0-5.1-.2-8.1-.6-8.8s-1.2-1.1-2.6-1.1c-.7 0-1.6.1-2.6.2l-2.3.3c-1 0-1.5-.3-1.5-1s.5-1 1.4-1h.1 2.2 3.1 1.4 1.4c1.2 0 1.9.6 1.9 1.9l-.2 19.9h0zm74.3 9.3c0 1.1-.2 1.7-.7 1.9s-1.2.3-2.3.3H267c-.7 0-1.2.1-1.4.3s-.3.7-.3 1.6c0 5.2 1.4 9.3 4.2 12.5s6.5 4.8 11 4.8c4.9 0 8.8-1.7 11.5-5.2 1.1-1.3 1.9-2.8 2.3-4.4 0-.2.1-.8.4-1.9.2-.9.6-1.3 1.2-1.3s.9.4.9 1.1c0 .9-.3 2-.9 3.5-1.2 3.1-3.2 5.5-5.9 7.2s-5.9 2.6-9.5 2.6c-5.3 0-9.5-1.8-12.7-5.4s-4.8-8.3-4.8-14.1c0-6 1.7-11 5-14.8s7.6-5.7 12.9-5.7c4.6 0 8.5 1.6 11.6 4.9 3.3 3.3 4.9 7.3 4.9 12.1zm-31.8-.7c0 .8.6 1.2 1.7 1.2H294c.9 0 1.3-.4 1.3-1.2 0-3.3-1.1-6.5-3.4-9.4-2.6-3.5-6.3-5.2-11-5.2-3.6 0-6.6 1-9.2 3s-4.4 4.8-5.5 8.4c-.4 1.2-.6 2.3-.6 3.2zM125.9 332.4c2.8-5.8 7.4-8.8 13.9-8.8 5 0 9 1.7 11.9 5.2s4.4 8.2 4.4 14.1c0 6.1-1.6 11.1-4.8 14.9s-7.4 5.7-12.5 5.7c-6 0-10.3-2.5-12.9-7.4v6.5c0 6.1.2 9.8.6 11 .4 1.3 1.6 1.9 3.6 1.9.4 0 .9 0 1.6-.1.7 0 1.3-.1 1.6-.1.1 0 .3-.1.5-.1 1.1 0 1.6.3 1.6 1 0 .6-.5.9-1.5.9h-.2l-2.7-.4h-5.4-1.5-2.2-3.3l-2.7.4h-.2c-1 0-1.5-.3-1.5-.9 0-.7.6-1 1.7-1 .1 0 .2 0 .4.1.4 0 .9 0 1.7.1.8 0 1.3.1 1.7.1 2 0 3.2-.6 3.6-1.9.4-1.2.6-4.9.6-11v-26.9-4.9c-.1-2.7-.5-4.2-1.2-4.7-.4-.3-1.1-.4-2-.4-.3 0-1.2.1-2.6.2l-2.3.1c-1 0-1.6-.3-1.6-1s.4-1 1.3-1h.2l2.2.2h1.8.9c.4 0 1 0 1.8-.1.8 0 1.4-.1 1.8-.1 1 0 1.5.5 1.5 1.6v.8l.2 6h0zm13.3 29.6c4.5 0 8.1-1.7 10.8-5 2.7-3.4 4-7.9 4-13.5 0-5.8-1.2-10.4-3.7-13.5-2.4-3.2-5.9-4.8-10.4-4.8-4.3 0-7.6 1.5-10.2 4.4-1.5 1.7-2.5 3.5-3 5.4s-.8 4.6-.8 8.2c0 3.8.1 6.3.2 7.5.4 2.8 1.3 5 2.8 6.7 2.7 3.1 6.1 4.6 10.3 4.6zm33.8-30.9c2.8-5 6.9-7.4 12.2-7.4 3.1 0 5.6.9 7.6 2.6s3 4 3 6.7c0 1.8-.5 3.3-1.4 4.5s-2 1.8-3.5 1.8c-1.9 0-2.8-.9-2.8-2.6 0-1.5.8-2.3 2.3-2.3.4 0 .8.2 1.2.5s.7.5.9.5c.7 0 1-.9 1-2.8 0-2.2-.8-3.9-2.4-5.3s-3.7-2-6.3-2c-4.4 0-7.7 1.6-9.7 5-1.5 2.5-2.2 6.3-2.2 11.5v6.6c0 6 .2 9.7.6 10.9s1.6 1.9 3.6 1.9h1.6 1.6.4c1.1 0 1.7.3 1.7.9s-.5.9-1.5.9h-.2l-2.7-.2-3.2-.2h-2.3-1.4-2.2l-3.2.2-2.7.2h-.2c-1 0-1.5-.3-1.5-.9s.6-.9 1.7-.9h.4 1.6 1.6c2 0 3.2-.6 3.6-1.9s.6-4.9.6-10.9V336v-4.9c-.1-2.7-.5-4.2-1.2-4.6-.4-.3-1.1-.4-2-.4-.3 0-1.2 0-2.6.2l-2.3.1c-1 0-1.5-.3-1.5-1s.4-1 1.3-1a13.97 13.97 0 0 1 2.5.2c.6 0 1.2.1 1.8.1h1.2c.6 0 1.4-.1 2.5-.2.1 0 .2 0 .4-.1h.4c1.1 0 1.6.6 1.6 1.7l.1 5h0zm45.2-7.5c5.4 0 9.8 1.9 13.2 5.6s5.1 8.6 5.1 14.6c0 5.8-1.7 10.6-5.1 14.3s-7.8 5.5-13.2 5.5c-5.3 0-9.6-1.9-12.9-5.7-3.4-3.8-5-8.7-5-14.7 0-5.7 1.7-10.4 5-14s7.7-5.6 12.9-5.6zm0 38.4c4.8 0 8.6-1.7 11.6-5s4.5-7.7 4.5-13c0-5.6-1.5-10.1-4.5-13.6s-6.8-5.2-11.6-5.2-8.6 1.7-11.5 5-4.4 7.7-4.4 13.1c0 5.6 1.5 10.2 4.3 13.6 3.1 3.4 6.9 5.1 11.6 5.1zm27.5-37.4h2.9c.4 0 1 0 1.7-.1s1.3-.1 1.7-.1c1.1 0 1.6.7 1.6 2.2v.5.8c0 .5-.1.9-.1 1.2l-.1 4.3v28l-.2 7.1c-.1 1.1-.5 2.2-1.1 3.4-1.9 3.7-5.4 5.6-10.5 5.6-3 0-5.5-.7-7.5-2-1.9-1.4-2.9-3.1-2.9-5.3 0-1 .3-1.8 1-2.5.6-.7 1.4-1 2.4-1 1.8 0 2.6.9 2.6 2.6 0 1.3-.7 2-2.1 2.2-.5.1-.8.3-.8.6 0 1 .7 1.9 2.2 2.7s3.1 1.2 5 1.2c2.6 0 4.7-.6 6.4-1.9s2.7-3 3.1-5.2c.2-1.2.3-3.8.3-7.6V336c0-5.3-.2-8.2-.5-8.9s-1.2-1-2.6-1c-.3 0-1.2 0-2.6.2l-2.1.1h-.2c-1 0-1.5-.3-1.5-1s.4-1 1.2-1h.3l2.4.2zm5.8-12.1c.7 0 1.3.3 1.9.9.5.6.8 1.2.8 2s-.3 1.4-.8 2c-.5.5-1.2.8-2 .8-.7 0-1.3-.3-1.9-.8s-.8-1.2-.8-2 .3-1.5.8-2c.5-.6 1.2-.9 2-.9zm46.6 28.1c0 1.1-.2 1.7-.7 1.9s-1.2.3-2.3.3h-27.4c-.7 0-1.2.1-1.4.3s-.3.7-.3 1.5c0 5.2 1.4 9.3 4.2 12.5s6.5 4.8 11 4.8c4.9 0 8.8-1.7 11.5-5.2 1.1-1.3 1.9-2.8 2.3-4.4 0-.2.1-.8.4-1.9.2-.9.6-1.3 1.2-1.3s.9.4.9 1.1c0 .9-.3 2-.9 3.5-1.2 3.1-3.2 5.5-5.9 7.2s-5.9 2.6-9.5 2.6c-5.3 0-9.5-1.8-12.7-5.4s-4.8-8.3-4.8-14.1c0-6 1.7-11 5-14.8s7.6-5.7 12.9-5.7c4.6 0 8.5 1.6 11.6 4.9 3.3 3.4 4.9 7.4 4.9 12.2zm-31.8-.7c0 .8.6 1.2 1.7 1.2h26.7c.9 0 1.3-.4 1.3-1.2 0-3.3-1.1-6.5-3.4-9.5-2.6-3.5-6.3-5.2-11-5.2-3.6 0-6.6 1-9.2 3s-4.4 4.8-5.5 8.4c-.4 1.3-.6 2.4-.6 3.3zm65.6-4.3c.7 0 1.1.1 1.3.4l.5.5c.3.2.5.2.6.2.7 0 1.1-.7 1.1-2.2 0-2.6-1.2-4.9-3.5-6.7-2.4-1.8-5.2-2.8-8.6-2.8-5 0-9 1.7-12 5.1s-4.5 8-4.5 13.7c0 5.5 1.4 9.9 4.3 13.1s6.8 4.8 11.7 4.8c4.6 0 8.2-1.5 10.5-4.5 1.7-2.1 2.5-4.2 2.6-6.2 0-1.3.4-1.9 1.1-1.9s1.1.5 1.1 1.5c0 3.1-1.3 6-4 8.7s-6.4 4-11.1 4c-5.5 0-10-1.8-13.3-5.4-3.4-3.6-5-8.3-5-14.1 0-6 1.7-11 5.1-14.7 3.4-3.8 7.9-5.7 13.3-5.7 4 0 7.4 1.1 10.2 3.3 2.7 2.2 4.1 4.9 4.1 8.1 0 1.6-.5 3-1.4 4.1s-2 1.6-3.4 1.6c-2 0-3-.9-3-2.8 0-1.3.8-2.1 2.3-2.1zm19.7-8.4l-.1 2.6V346c0 5.1.3 8.8.9 11 .9 3.3 3 5 6.3 5 2.6 0 4.5-.9 5.6-2.7s1.6-4.8 1.6-9.1v-2.3-.5-.3c0-1.1.3-1.6 1-1.6s1 .5 1 1.6v1.9c0 3.6-.3 6.5-.8 8.5-1 4-3.8 6-8.5 6-6.2 0-9.3-4.4-9.3-13.3v-20.5c0-1.6-.1-2.7-.3-3.1s-.9-.6-1.9-.6c-.3 0-1.1 0-2.3.2l-1.8.1c-1 0-1.5-.4-1.5-1.1 0-.6.5-.9 1.4-.9.4 0 1 0 1.9.1.8.1 1.5.1 1.9.1 1.6 0 2.6-.5 2.9-1.5.2-.6.3-1.6.3-3v-.4c0-2.2.1-3.5.2-4.1s.4-.8.9-.8c.6 0 .8.4.8 1.2v.2l-.2 3.7c-.2.8-.2 1.8-.2 2.9s.8 1.7 2.3 1.7h2.6c.6 0 1.5 0 2.6-.1s2-.1 2.6-.1c1 0 1.6.3 1.6 1s-.6 1-1.7 1h-.2l-2.4-.1c-.4 0-1.3 0-2.6-.2-1.1 0-1.9-.1-2.6-.1-1.1.3-1.9.7-2 1.4zM80.9 234.7h.5c.2 0 .8-.1 1.5-.2s1.9-.6 3.5-1.4 2.9-1.3 3.7-1.6l2.4-.5c.8-.1 1.6-.1 2.4.1 1.3.2 2.7 1.1 4.3 2.5l3.3 2.8c.2.7.6 2.7 1.1 5.9s1.2 5.4 2.1 6.5c1.6-.3 3.6-1.2 6.1-2.6s4.5-2.4 6-2.8 3-.5 4.4-.2c-.2 1-.7 2-1.7 3a13.1 13.1 0 0 1-3.1 2.3l-5.4 2.2a46.79 46.79 0 0 0-6 2.7c-1.3.8-2.3 1.5-3 2.3-1 1.1-2.1 3-3.1 5.6s-1.9 4.5-2.5 5.5c-1.6 2.5-3.6 5-6 7.7-2.4 2.6-5 4.8-7.7 6.4-1.4.9-3.2 1.6-5.2 2.3-2 .6-3.8.9-5.4.7s-2.9-.7-3.9-1.4c-.6.2-1.3.9-2.2 1.9s-1.8 1.6-2.6 1.7c-.7.2-1.8 0-3.3-.6s-2.4-.9-2.7-1c-.7-1.4-1.2-3.3-1.4-5.8s0-6.3.7-11.4c.2-2.5 1-6.5 2.3-12.2 1.3-5.6 2.1-9.8 2.5-12.3 1.9-13.1 3.4-25.4 4.3-36.9 0-.1.1-1.9.4-5.4.2-3.5.7-6 1.4-7.5s1.7-2.2 3.1-1.9c2.6.5 4.7 1.7 6.3 3.7 1.5 2 2.6 4.8 3.3 8.5.7 3.6.8 9.3.3 17-.6 7.6-.8 12.4-.7 14.4zm.8 6.9c-1.6 2.1-3 4.8-4.3 8s-2 6.1-2.3 8.7c-.2 2.5-.2 4.5.1 5.8 1.6-.1 3.5-.9 5.6-2.5s3.2-2.4 3.3-2.4c4.6-2.6 7.4-4.4 8.4-5.3 1.7-3.8 2.6-7.2 2.7-10.2s-.4-5.4-1.5-7c-1-.5-2.3-.7-3.8-.6s-3 .7-4.5 1.7c-1.4 1.2-2.6 2.4-3.7 3.8zm-6 33.7c2 .3 3.8 0 5.3-1s2.7-2.3 3.4-3.9 1.1-3 1.3-4.3c-5.3 1-8.6 4-10 9.2z"></path>
  <path d="M146.7 237.6c-.6.6-1.3 1.1-2 1.4s-1.8 0-3.2-.8-2.6-1.2-3.5-1.1c-1.4.2-3.2 1.9-5.3 5.3-1.9 3.2-3.5 6.9-4.8 11.2l-1.6 4c-.6 2.6-.8 5-.4 7s1.1 3.4 2.3 4c1.2.7 2.8.5 4.9-.5 1.9-.9 3.3-1.8 4.2-2.8s2.1-2.7 3.7-5.3c.2-.3 1.1-1.4 2.6-3.2s2.4-3.3 2.7-4.3l1.6-6 2.3-8c.2-.5.4-1.1.6-1.6 1.1-3 2.2-5 3.3-6 1.1-.9 2.4-1.3 3.9-1.3 1.4.1 2.6.6 3.5 1.7.9 1 1.5 1.7 1.6 1.9.4 2.2.6 5 .5 8.2s-.5 7.7-1.4 13.5-1.3 9.7-1.5 11.7c-.1.9-.1 3.6 0 8.1s-.3 8-1.2 10.3c0 .7.3 1.5.8 2.4s.8 1.7.8 2.4c-.4.6-1 1.2-1.7 1.9-.8.7-1.4 1.3-1.9 1.7-.7-.2-1.9-.5-3.5-.7s-2.7-.4-3.2-.5c-.3-.5-1-1.3-2.1-2.4s-1.9-2-2.4-2.8-.9-1.6-1.1-2.4c-.4-1.4-.6-3.9-.7-7.6s-.5-6.4-1.3-8.1c-1.7.7-3.6 2.2-5.8 4.5-2.2 2.2-3.9 3.7-5.2 4.3s-2.5.9-3.6.9h-2.2c-2.4-.2-5-1.3-7.8-3.5s-4.6-4.3-5.5-6.5c-1.4-3.5-1.5-7.9-.4-13s3-9.8 5.6-14c1.4-2.2 3.2-4.5 5.6-7s4.3-4 5.7-4.7c1.6-.7 3.6-1.1 5.9-1.1s4.4.5 6.1 1.4 3 2.1 3.9 3.4c.6 1.3 1.1 2.7 1.2 4zm43 39.7c.6 0 1.4-.2 2.3-.6s2.3-1.7 4.1-3.9c4.2-5.1 8.3-11.7 12.4-19.6l3.6-7.2c1-1.8 1.8-3.1 2.3-3.7s1-1.1 1.6-1.3 1-.3 1.3-.3c.4.5.6 1.1.7 1.7s-.2 1.5-.8 2.5-.9 1.6-1 1.8c-.2.5-.4 1.4-.8 2.8s-.8 2.3-1.1 2.9l-3.6 5.2c-3 5.2-5.1 8.7-6.5 10.5l-1.9 2.4c-4.5 7.3-9.3 11.9-14.4 13.7-1.2.4-2.5.5-4 .4-1.4-.1-2.8-.7-4.1-1.8s-2.5-2.7-3.5-4.8c-1.1-2.1-1.9-4.8-2.5-7.9-.6-3.2-.8-6.1-.8-8.8 0-1.5.5-5.8 1.6-12.8l1.7-12.5c.3-2 1.1-4.9 2.2-8.7 1.2-3.8 1.9-6.3 2.2-7.7 1.8-9.1 3.1-14.8 3.9-17.1.7-2.4 1.4-4.4 2.2-6.2 1.2-3.1 2.8-4.9 4.7-5.6s4.1-.8 6.5-.4c1.8.3 3.6 1.5 5.6 3.5s3.2 3.9 3.6 5.8c.2 1.1.1 3.5-.5 7.2-.5 4.8-1.4 8.8-2.8 12-.6 1.4-1.3 3-2.3 4.8-1 1.9-2.5 4.3-4.3 7.4l-3.8 6.2c-2.1 3.8-3.5 8.1-4.3 12.9-.1.5-.2 1.3-.4 2.4s-.3 3.5-.5 7.1l-.3 6.1c0 .4-.1 1.5-.4 3.4s-.3 3.5 0 4.9c.1 1.4.8 2.5 2.1 3.3zm9.3-82.2h-1.2c-.1.2-.2.5-.5.7-.2.2-.4.4-.4.5.1 3.1-.2 7.7-.7 13.8s-.8 10.3-.8 12.6c1.4-1.1 2.6-2.8 3.7-5s1.9-4.8 2.4-7.8c.5-2.9.5-5.7.1-8.3-.5-2.6-1.3-4.8-2.6-6.5z"></path>
  <path d="M240.3 237.6c-.6.6-1.3 1.1-2 1.4s-1.8 0-3.2-.8-2.6-1.2-3.5-1.1c-1.4.2-3.2 1.9-5.3 5.3-1.9 3.2-3.5 6.9-4.8 11.2l-1.6 4c-.6 2.6-.8 5-.4 7s1.1 3.4 2.3 4c1.2.7 2.8.5 4.9-.5 1.9-.9 3.3-1.8 4.2-2.8s2.1-2.7 3.7-5.3c.2-.3 1.1-1.4 2.6-3.2s2.4-3.3 2.7-4.3l1.6-6 2.3-8c.2-.5.4-1.1.6-1.6 1.1-3 2.2-5 3.3-6 1.1-.9 2.4-1.3 3.9-1.3 1.4.1 2.6.6 3.5 1.7.9 1 1.5 1.7 1.6 1.9.4 2.2.6 5 .5 8.2s-.5 7.7-1.4 13.5l-1.5 11.7c-.1.9-.1 3.6 0 8.1s-.3 8-1.2 10.3c0 .7.3 1.5.8 2.4s.8 1.7.8 2.4c-.4.6-1 1.2-1.7 1.9-.8.7-1.4 1.3-1.9 1.7-.7-.2-1.9-.5-3.5-.7s-2.7-.4-3.2-.5c-.3-.5-1-1.3-2.1-2.4s-1.9-2-2.4-2.8-.9-1.6-1.1-2.4c-.4-1.4-.6-3.9-.7-7.6s-.5-6.4-1.3-8.1c-1.7.7-3.6 2.2-5.8 4.5-2.2 2.2-3.9 3.7-5.2 4.3s-2.5.9-3.6.9H220c-2.4-.2-5-1.3-7.8-3.5s-4.6-4.3-5.5-6.5c-1.4-3.5-1.5-7.9-.4-13s3-9.8 5.6-14c1.4-2.2 3.2-4.5 5.6-7s4.3-4 5.7-4.7c1.6-.7 3.6-1.1 5.9-1.1s4.4.5 6.1 1.4 3 2.1 3.9 3.4c.7 1.3 1.2 2.7 1.2 4zm44.4 12.3c.9-.6 1.7-1.4 2.5-2.5s2.2-3.4 4.3-6.9 3.8-5.9 5-7.2c1.3-1.2 2.5-2 3.7-2.3 3-.9 5.5-.5 7.6 1.1s3.5 3.7 4 6.2c.6 2.6.7 4.8.4 6.7l-.5 3c-.3 1.4-1.2 5.1-2.9 11.1l-3 11.4c-.4 1.6-.6 3.4-.8 5.2-.2 1.9-.3 3.5-.3 5 .6.2 1.1.1 1.7-.1s1.3-.8 2-1.8 1.2-1.5 1.4-1.7c1.8-2 3.7-4.3 5.5-6.9l5.9-8.5 4.3-6.2 4-5.3c.1-.1 1-1.6 2.8-4.5s3.8-4.4 6.1-4.3c.2 1.2.1 2.5-.3 3.9s-1.5 2.8-3.2 4.3l-3 2.6c-.4 1.4-1 2.8-1.7 4.1a138.08 138.08 0 0 1-2.7 4.2c-1 1.5-1.7 2.4-1.9 2.8-.2.2-.9 1.4-2.2 3.5s-2.3 3.6-3 4.6l-5.6 7.2-7.6 9.6c-2 2.5-3.5 3.9-4.5 4.1-1.7.3-3.4-.1-5.1-1.4-1.7-1.2-3.1-2.7-4.1-4.3-.5-.8-1-1.9-1.6-3.1s-.7-3.6-.5-6.9c.3-3.9 1.5-10 3.7-18.1 2.1-8.1 3.3-14.2 3.5-18.1-.6 0-1.1.2-1.7.6s-1.2 1.1-1.9 2.1c-.6 1-1 1.6-1.2 1.7l-4 4.8c-.7 3.4-1.5 6-2.4 8.1-.4.8-1.1 1.8-2 3.1-1 1.3-1.6 2.2-1.9 2.9-.6 1.2-1.4 3.5-2.3 6.9s-1.7 5.8-2.5 7.3c-.8 1.4-1.7 2.6-3 3.5-2.2.2-3.9-.2-5.3-1.1s-2.3-2.1-2.9-3.6-.9-3.4-.9-5.6.2-5.1.7-8.5l.8-5.7c.1-.6.5-5 1.3-13.3s2-14 3.5-17.1c2.2-.7 3.9-.7 5.2-.1s2.3 1.9 3 3.6 1.2 4.8 1.6 9.2.8 7.2 1.1 8.3c.5 1.4.8 2.1.9 2.4z"></path>
  <path d="M350.5 237.1c-.6-.2-1.1-.1-1.6.2s-1 1.1-1.4 2.3-.8 2-1 2.3c-.3.6-.9 1.4-1.8 2.6s-1.5 2.1-1.8 2.7l-1.6 4.8c-.2.3-.5 1-1.1 1.9-.6 1-.9 1.6-1 2s-.1 1.1-.1 2 .1 1.6.1 2c0 .2-.3 1.4-.8 3.9-.5 2.4-.5 4.5-.1 6.2.6 2.2 1.7 4 3.5 5.2s4 1.5 6.5.8c1.4-.4 3.3-1.9 5.7-4.4l3.9-4 3.6-2.4c.2-.2.8-1.2 1.7-3 .9-1.7 1.9-2.6 3.1-2.7 2.2-3.7 5.2-8.2 9.1-13.6.1-.1.4-.4.8-1.1.5-.6 1-1.2 1.5-1.6s1.1-.6 1.7-.6c.3.8.4 1.7.1 2.8-.2 1.1-1 2.4-2.2 3.9l-2 2.5c-7.3 10.2-13.4 17.9-18.4 23.2-1.2.6-2.7 1.7-4.4 3.2s-3.1 2.5-4.2 3c-1 .5-1.8.9-2.3 1-1.5.6-2.9 1.1-4.2 1.3a10.33 10.33 0 0 1-3.9-.1c-1.1-.2-2.5-.8-4.2-1.6s-2.8-1.5-3.4-2c-2-1.5-3.6-3.9-4.8-7-1.2-3.2-1.7-6.7-1.7-10.6 0-3.5.7-7.2 2-11.4 1.3-4.1 3-7.9 5-11.2 2-3.4 4-6 5.8-7.8s3.4-3 4.9-3.7a17.83 17.83 0 0 1 7.4-1.6c2.7 0 5 .5 6.8 1.6 1.8 1 3 2.6 3.5 4.8.3 1.3.4 3 .2 5.1s-.6 4.3-1.4 6.5-1.5 3.5-2 3.6c-.7.2-1.4.3-2.1.1s-1.2-.6-1.5-1.4-.6-2.5-.7-5.2c.3-2.3-.2-3.9-1.2-4.5z"></path>
  <path d="M426.1 239.3c.2.5.3 1 .2 1.6s-.5 1.3-1.1 2.1-1.1 1.3-1.1 1.5l-2.8 5.3-3.6 4.3c-.3.4-.8 1.2-1.3 2.4-.6 1.2-1 2-1.4 2.4-.7.9-2.1 2.2-4.1 4.1s-3.5 3.3-4.3 4.5c-1.6 1.9-3.9 3.9-6.8 6l-4 3.1c-.3.2-1 .5-2.1.8s-1.9.6-2.3.8c-.5.2-1.1.7-1.9 1.3s-1.3 1-1.7 1.1c-5.8 1.4-10.5.1-14.1-4.1-2-2.3-3.4-4.9-4.1-7.6s-.8-6.3-.4-10.8c.2-1.8.8-4 1.7-6.4s2.3-5 4.1-7.8c1.8-2.7 3.8-5.2 5.8-7.5.5-.5 1.4-1.6 2.8-3.4s2.5-3.1 3.4-3.8 1.8-1.3 2.7-1.7c2.9-1.1 5.6-1.3 8.2-.5s4.6 2.1 5.9 4 1.8 4.1 1.5 6.7c-.2 1-.5 2-1.1 3.1s-1.5 2.3-2.7 3.5-3.9 3.4-8.2 6.5c-.6.4-1.9 1.3-4 2.6s-3.6 2.5-4.4 3.6-1.3 2.4-1.6 3.9-.3 3.4-.1 5.6c.3 3.1.9 5 1.8 5.6s1.8 1 2.7 1.2c2.2.2 5.4-1 9.6-3.6 2.8-1.8 5.8-4.5 9.1-7.9s7.3-8.6 12.2-15.5c.2-.3.8-1.3 1.7-2.8.9-1.6 1.8-2.7 2.8-3.4.9-.6 1.9-.9 3-.8zm-25.6-3.2a3.12 3.12 0 0 0-1.1-2c-.7-.6-1.4-1-2.2-1.1-1.2-.1-2.3.4-3.4 1.6s-1.9 2.8-2.5 5-1.1 4.5-1.3 6.6c1 .2 2.2-.2 3.8-1s3.1-2.3 4.6-4.3c1.6-2 2.3-3.6 2.1-4.8zM53.6 364.4l-7.2 9.4 11.4-2.7c.3-.1.6-.2.7-.3.3-.2.3-.5.1-1-.1-.2-.3-.4-.4-.5-.2-.3-.4-.5-.4-.5-.4-.6-.3-1.1.3-1.5s1.2-.2 1.7.6c.1.1.2.3.3.6l.5 1.1c.1.3.3.6.5.9s.6.8 1 1.3c.5.5.8 1 1 1.3.5.8.5 1.4-.1 1.8s-1.1.3-1.5-.3c-.1-.2-.2-.3-.2-.5-.1-.3-.2-.5-.2-.5-.2-.4-.9-.4-2.1-.1l-12 2.3c-2.6.5-4.7.8-6.1.6-2.4-.2-4.3-1.2-5.5-3.1-.7-1.1-1.1-2.3-1-3.4s.5-2 1.3-2.5c.6-.4 1.1-.5 1.7-.4s1.1.4 1.4.9c.3.4.4.9.3 1.3s-.3.8-.6 1c-.6.4-1.1.4-1.7 0-.2.5-.1 1.2.4 2 .6 1 1.6 1.6 2.8 1.9s2.3.1 3.2-.5c.5-.3 1.1-1.1 2.1-2.5L51 363l.7-.9c.6-.9.8-1.5.5-1.9-.1-.1-.2-.3-.5-.5-.2-.3-.4-.4-.4-.5-.4-.6-.4-1.2.2-1.5.6-.4 1.2-.2 1.8.6.2.3.3.5.4.7l.6 1.2s.1.1.1.2c.1.1.1.3.2.4.4.7.9 1.3 1.5 2l.9 1.1c.5.8.5 1.4-.1 1.8s-1.1.2-1.6-.5c-.1-.1-.2-.3-.3-.6s-.2-.5-.3-.6c-.2-.3-.4-.3-.6-.1-.1.1-.3.2-.5.5zm9.1 35.2c-1.5-1.8-2.1-3.7-1.9-5.8s1.5-4 3.5-5.8 4.1-2.6 6.2-2.6 4 .9 5.5 2.7c1.6 1.8 2.2 3.8 2 5.9-.3 2.1-1.4 4-3.5 5.8-2 1.8-4.1 2.6-6.3 2.6-2.1-.1-3.9-1-5.5-2.8zm11.8-10c-1-1.2-2.2-1.7-3.6-1.7s-2.9.7-4.4 1.9l-.3.3c-1.6 1.4-2.5 2.8-2.8 4.2s0 2.8 1.1 3.9c1.1 1.2 2.3 1.8 3.8 1.7s3-.8 4.6-2.2c3.3-2.9 3.8-5.6 1.6-8.1zm15 34.6l.7-.8c-2 .4-3.8-.1-5.5-1.6-2-1.7-2.8-3.5-2.5-5.4.1-.8.5-1.6 1.1-2.4.3-.4.9-1.1 1.9-2.2l1.8-2.1c2-2.3 2.8-3.6 2.3-4-.1-.1-.3-.2-.5-.4s-.4-.3-.5-.4c-.6-.5-.6-1-.2-1.6.5-.5 1-.5 1.8.2.2.1.4.4.7.7s.5.6.7.7c.1.1.4.3.8.6.3.2.4.3.5.3.5.5.5 1-.1 1.6l-.5.5-1.4 1.6-1.7 1.8-1.4 1.6c-1.3 1.5-2.1 2.6-2.4 3.4-.5 1.4-.1 2.7 1.4 4 .7.6 1.5 1 2.3 1.2s1.6.1 2.3-.3c.8-.4 2-1.5 3.6-3.3l1.2-1.4 1.4-1.6c.6-.9.8-1.5.4-1.8-.2-.2-.3-.3-.5-.4l-.3-.3c-.6-.5-.6-1-.2-1.5.5-.6 1.1-.6 1.7 0l.6.6.6.6c.1.1.4.3.6.5s.5.4.6.5c.5.4.5.9 0 1.5l-.5.5-2.6 2.7-3.4 3.8-1.5 1.7c-.7 1-.9 1.6-.5 1.9.1.1.3.2.5.4s.4.3.5.4c.6.5.6 1 .1 1.6s-1.1.5-1.8-.1c-.1-.1-.4-.3-.6-.6-.4-.4-.6-.7-.7-.8 0 0-.2-.2-.6-.4-.2-.1-.4-.2-.6-.4 0-.2 0-.7.4-1.1zm27 2l-.5.8c1.9-.7 3.6-.5 5.2.6 1.3.9 2.1 1.9 2.4 3.2s.1 2.5-.7 3.6c-.5.8-1.2 1.3-1.9 1.6s-1.5.1-2.1-.3c-.4-.3-.7-.6-.8-1.1s-.1-.9.2-1.2c.2-.3.5-.5.9-.6s.7 0 1 .2c0 0 .2.1.3.3.3-.1.5-.3.6-.5.4-.5.4-1.1.2-1.8s-.7-1.3-1.4-1.7c-1.4-1-2.8-1-4.2 0-.8.6-1.8 1.7-2.9 3.3l-1.2 1.8-1.4 2.1c-.6 1.1-.7 1.8-.2 2.1.2.2.5.3.8.4l.6.3c.6.4.7.9.3 1.5s-1 .7-1.8.2l-.1-.1a18.39 18.39 0 0 1-1.2-.9c-.5-.4-.9-.8-1.2-.9-.7-.5-1.3-.9-1.8-1.1l-1.6-.9c-.8-.5-.9-1.1-.5-1.7s.9-.6 1.6-.1c.2.1.3.2.4.3l.4.4c.2.2.3.3.4.3.5.3 1 .1 1.6-.8l1-1.4 4.1-6.3c.7-1.1.8-1.8.3-2.2-.1-.1-.4-.2-.7-.3s-.5-.2-.7-.3c-.6-.4-.7-.9-.3-1.5s1-.7 1.8-.2c.2.1.4.3.8.6.3.3.6.5.8.6.1.1.4.2.8.4.2 0 .4.1.6.3.4 0 .5.4.1 1zm30.7 19.6l-4.4 9.3c-.5 1-.4 1.7.1 1.9.1.1.4.1.8.2.3.1.4.1.5.2.7.3.8.8.5 1.5s-.9.8-1.7.4c-.3-.2-.8-.4-1.5-.8l-1.5-.9a22.43 22.43 0 0 1-1.5-.6c-.7-.3-1.2-.4-1.5-.5l-.1-.1c-.8-.4-1.1-1-.7-1.7.3-.6.8-.8 1.5-.4 0 0 .1 0 .2.1s.2.1.2.2l.8.6c.4.2.7.1.9-.1.2-.3.7-1 1.3-2.3l1-2.1 2.2-4.7 2.5-5.4c.3-.6.4-1 .5-1.2.1-.5-.1-.9-.5-1.1-.1 0-.3-.1-.8-.2-.2-.1-.4-.1-.6-.2-.7-.3-.9-.8-.6-1.4.3-.7.9-.8 1.7-.4.2.1.4.2.5.3l.7.4c.3.2.6.3.8.5.2.1.5.2.9.3s.7.2.9.3c.5.2.5.6.3 1.2-.1.2-.2.3-.2.4-.8 1.3-1.9 3.5-3.2 6.3zm14 21.3c-2.2-.8-3.7-2.2-4.4-4.2-.8-2-.7-4.2.2-6.8s2.3-4.3 4.2-5.4c1.9-1 3.9-1.1 6.1-.4 2.3.8 3.8 2.2 4.6 4.1.8 2 .7 4.2-.2 6.7s-2.3 4.3-4.2 5.4c-2 1.3-4 1.5-6.3.6zm5.4-14.5c-1.5-.5-2.8-.4-4 .3s-2.2 2-2.9 3.9l-.1.4c-.7 2-.8 3.6-.4 5s1.4 2.4 2.9 2.9 2.9.4 4.2-.4 2.2-2.2 3-4.2c1.3-4.1.5-6.8-2.7-7.9zm27.4 12c.2-.9.9-1.2 2-1.1.1-.8-.2-1.5-.7-2a4.67 4.67 0 0 0-2.2-1.2c-1.5-.3-2.8 0-4 1s-2 2.5-2.4 4.4c-.5 2-.4 3.7.2 5.1.6 1.3 1.6 2.2 3.1 2.5 1 .2 1.8.1 2.7-.2.8-.4 1.5-1 1.9-1.9l.7-1.2c.3-.4.7-.5 1.2-.4.4.1.6.3.8.6s.2.6.1 1c-.1.5-.4 1.2-1 1.8-.5.7-1.1 1.2-1.6 1.6-1.6 1.1-3.4 1.4-5.4.9-2.2-.5-3.8-1.7-4.8-3.5s-1.2-4-.6-6.6c.6-2.7 1.8-4.7 3.5-6 1.8-1.3 3.8-1.7 6.1-1.2 1.7.4 3 1.2 4 2.4s1.2 2.5.9 4c-.2.8-.5 1.4-1.1 1.8s-1.2.5-1.9.4c-.5-.1-1-.4-1.2-.8-.3-.5-.4-.9-.3-1.4zm30.1 15.8c-1.8-.2-2.8-1.1-3.1-2.7-1.3 1.5-3.1 2.2-5.5 2-1.8-.2-3.2-.8-4.1-1.7-1-1-1.4-2.2-1.2-3.7.2-1.8 1.1-3.1 2.7-3.8.6-.3 1.2-.4 1.6-.5s1.3-.1 2.6-.1c1.9 0 3.1-.2 3.7-.5s.9-.9 1-1.9c.1-.9-.1-1.6-.7-2.2s-1.4-.9-2.5-1c-1-.1-1.9.1-2.9.5-.4.2-.5.4-.6.6 0 .1.1.2.3.4.3.2.4.6.4 1.2a1.1 1.1 0 0 1-.6 1c-.4.2-.8.4-1.2.3-.6-.1-1-.3-1.4-.7s-.5-.9-.4-1.5c.1-1.2.8-2.2 2.1-3s2.8-1 4.6-.9c4 .4 5.8 2.5 5.4 6.4l-.6 6.7-.1 1.9c.1.8.4 1.2 1 1.3.8.1 1.2-.6 1.4-2l.2-1.6c.1-.7.4-1 1.1-1 .7.1 1 .6.9 1.7v.2l-.2 1.9c-.4 2-1.7 2.9-3.9 2.7zm-3-6.9l.2-2.3c-.5.4-1.1.7-1.6.8s-1.5.2-2.9.2c-2.5 0-3.9.8-4 2.4-.1.8.1 1.5.7 2.1s1.4.9 2.4 1c1.5.2 2.7-.1 3.6-.9.9-.9 1.5-1.9 1.6-3.3zm21.9-6.8V477c0 1.1.3 1.7.9 1.7.1 0 .4-.1.8-.2.3 0 .5-.1.5-.1.7 0 1.1.4 1.1 1.1s-.5 1.1-1.4 1.1c-.4 0-.9 0-1.7-.1s-1.4-.1-1.8-.1-.9 0-1.6.1-1.2.1-1.5.1h-.2c-.9 0-1.4-.4-1.4-1.2 0-.7.4-1 1.1-1h.2.3l1 .2c.4 0 .6-.2.8-.5.1-.3.2-1.2.2-2.7v-2.3-5.2-5.9c0-.7-.1-1.1-.1-1.3-.2-.5-.5-.8-.9-.8-.1 0-.4 0-.9.1-.2 0-.4.1-.6.1-.8 0-1.1-.3-1.1-1.1 0-.7.4-1.1 1.3-1.1h.6l.8.1c.4 0 .6.1.9.1.2 0 .5 0 1-.1.4-.1.8-.1 1-.1.5 0 .8.3.8 1v.5l-.1 7.3zm35-.1c-.1-.9.3-1.5 1.4-1.8-.2-.8-.7-1.3-1.4-1.6s-1.5-.4-2.5-.3c-1.5.2-2.6 1-3.4 2.4-.7 1.3-1 3-.6 5 .3 2.1 1 3.6 2 4.6s2.3 1.4 3.9 1.2c1-.2 1.8-.5 2.4-1.2s1-1.5 1.1-2.5l.2-1.4c.2-.5.5-.8 1-.8.4-.1.7 0 1 .2s.4.5.5.9c.1.5 0 1.2-.2 2s-.5 1.5-1 2.1c-1.1 1.6-2.6 2.5-4.7 2.8-2.2.3-4.1-.2-5.8-1.5-1.6-1.4-2.6-3.3-3-5.9-.4-2.7 0-5 1.1-6.8s2.9-2.9 5.2-3.3c1.8-.3 3.3 0 4.6.8s2.1 1.9 2.3 3.4c.1.8 0 1.5-.4 2.1a2.14 2.14 0 0 1-1.6 1c-.5.1-1 0-1.4-.3-.4-.2-.6-.6-.7-1.1zm27.4 5.7c-2.2.6-4.2.4-6-.8s-3-3-3.8-5.7-.6-4.9.3-6.8 2.5-3.2 4.8-3.8 4.4-.4 6.1.7 3 3 3.7 5.6.6 4.9-.3 6.8-2.5 3.4-4.8 4zm-4.1-15c-1.5.4-2.5 1.3-3.1 2.6s-.6 2.9-.2 4.8l.1.4c.6 2 1.4 3.5 2.6 4.4s2.5 1.1 4 .7 2.6-1.3 3.2-2.7.6-3.1 0-5.1c-1.1-4.3-3.3-6-6.6-5.1zm19.3.2c-.3-.7 0-1.2.8-1.6l4.8-1.9c.8-.3 1.4-.1 1.6.6.3.7 0 1.3-.8 1.6l-4.8 1.9c-.8.3-1.3.1-1.6-.6zm22.1-13l7 7.7-3.3-11.5c-.4-1.2-.5-2.1-.4-2.6s.4-.9 1-1.2 1.1-.4 1.6-.2 1.1.8 2 1.7l7.8 9-2.7-10-.6-1.6v-.1c-.3-.5-.7-.7-1.1-.4-.2.1-.4.3-.7.5s-.5.4-.7.5c-.7.4-1.2.3-1.6-.4s-.1-1.3.9-1.8c.1-.1.3-.1.5-.2l1.3-.5c.3-.1.8-.4 1.5-.7l1.5-.9.9-.7c.1-.1.2-.1.3-.2.8-.5 1.4-.4 1.8.3.4.6.2 1.1-.4 1.5-.2.1-.4.2-.5.2-.3.1-.5.2-.6.2-.5.3-.5 1.7.2 4.1l2.2 8.6c.3 1 .3 1.8.2 2.4s-.4 1-1 1.2c-1 .6-2.2.1-3.4-1.3l-7.9-9.1 3.3 11.4c.3 1.1.4 1.9.3 2.5s-.5 1-1 1.3c-.9.5-1.8.2-2.8-.8l-8.5-9c-.5-.5-1-.7-1.3-.5-.1.1-.3.2-.5.4-.3.2-.5.4-.6.4-.6.4-1.1.2-1.5-.4-.4-.7-.1-1.3.7-1.8.2-.1.3-.1.3-.1l1.4-.5c.3-.1.7-.3 1.1-.5l1.8-1.1 1.4-1c.8-.5 1.5-.4 1.8.3.4.6.2 1.2-.5 1.6-.1.1-.4.2-.8.3-.3 0-.6.1-.8.3-.5.3-.6.7-.3 1.3-.1.5.2.9.7 1.4zm43-12.5c-1.8 1.4-3.8 1.9-5.9 1.5s-4-1.7-5.6-3.8c-1.7-2.1-2.4-4.3-2.3-6.4s1.1-3.9 3-5.4 3.9-2 6-1.6 3.9 1.7 5.6 3.8 2.4 4.3 2.3 6.5-1.2 3.9-3.1 5.4zm-9.3-12.4c-1.2 1-1.9 2.1-1.9 3.5s.5 2.9 1.7 4.5l.3.3c1.3 1.6 2.6 2.7 4 3.1s2.7.1 4-.8c1.3-1 1.9-2.2 1.9-3.7s-.6-3.1-1.9-4.7c-2.8-3.6-5.5-4.3-8.1-2.2zm18-16.5l.6.6c-.3-2 .2-3.6 1.6-5 1.1-1.1 2.3-1.6 3.6-1.7 1.3 0 2.4.4 3.4 1.4.7.7 1.1 1.4 1.1 2.2.1.8-.2 1.4-.7 2-.4.4-.8.5-1.2.6-.5 0-.9-.1-1.2-.4a1.53 1.53 0 0 1-.4-1c0-.4.1-.7.4-1l.4-.2c-.1-.3-.2-.5-.4-.7-.5-.5-1-.6-1.7-.6-.7.1-1.4.4-2 1-1.2 1.2-1.5 2.6-.8 4.1.4.9 1.3 2.1 2.6 3.5l1.5 1.6 1.8 1.8c1 .8 1.7 1 2.1.6.2-.2.4-.4.6-.7.1-.2.3-.4.4-.5.5-.5 1-.5 1.5 0s.5 1.1-.2 1.8l-.1.1c-.2.2-.6.5-1.2 1l-1.2 1-1.4 1.5-1.2 1.4c-.7.6-1.2.7-1.8.1-.5-.5-.4-1 .2-1.6.2-.2.3-.3.4-.3l.4-.3a1.38 1.38 0 0 0 .4-.3c.4-.4.3-1-.4-1.7l-1.2-1.2-5.3-5.3c-1-.9-1.7-1.1-2.1-.7-.1.1-.3.3-.5.6s-.3.5-.5.6c-.5.5-1 .5-1.5 0s-.5-1.2.2-1.8c.2-.1.4-.4.8-.6s.6-.5.8-.6c.1-.1.3-.3.6-.7.1-.2.2-.3.4-.5.3-.6.8-.5 1.2-.1z"></path>
  <path d="M417.8 388.4l-.7-7.7c0-.3-.1-.5-.3-.6s-.3-.1-.5.1c-.1.2-.3.5-.5.8-.2.4-.4.7-.5.8-.5.6-1 .7-1.5.2-.6-.5-.6-1.1 0-1.9.2-.2.4-.4.6-.7l2.4-2.6.7-.9.7-1.2.4-.6c.7-.9 1.3-1 1.9-.6.6.5.6 1 .2 1.5l-.5.5-.5.5c-.3.4-.5 1.1-.4 1.9l.3 4.7c0 .3.1.5.2.6s.3.1.5.1l7 .1c1.8 0 2.8-.2 3.1-.5.1-.1.2-.2.3-.5.1-.2.2-.4.3-.5.5-.6 1-.7 1.6-.3.6.5.6 1.1-.1 1.9-.2.3-.7.8-1.2 1.3l-1.2 1.3c-.2.3-.5.7-.8 1.3s-.6 1-.8 1.3c-.5.7-1.1.8-1.7.3-.5-.4-.6-1-.1-1.6.1-.2.3-.3.3-.4.3-.2.5-.4.6-.5.1-.2.1-.3 0-.4l-.1-.1h-.1-.6-.8l-5.5-.1c-.4 0-.6 0-.7.1 0 .1-.1.3 0 .6l.2 3.3.6.5c.8.7 1.3 1 1.4 1.1.7.4 1.2.4 1.5 0 .1-.2.2-.3.3-.5s.2-.3.3-.5c.5-.6 1-.7 1.6-.2s.6 1 .1 1.7c-.2.3-.6.7-1.2 1.2l-1.2 1.3c-.3.4-.6.9-1 1.5-.4.7-.7 1.2-.9 1.4-.5.7-1.1.8-1.7.3s-.6-1-.1-1.7c.1-.1.3-.3.4-.5.3-.2.5-.4.5-.5.3-.4.2-.9-.4-1.5l-1-.9-10.5-8.3-1.9-1.2c-.3-.1-.6 0-.8.2-.1.1-.2.3-.3.5-.1.3-.3.6-.5.8-.5.6-1 .7-1.5.2-.6-.5-.6-1-.1-1.7.3-.4.5-.6.6-.7l.8-.8c.1-.1.2-.4.4-.7l.4-.6.1-.2c.4-.6 1-.6 1.7 0l10.2 8.3zm7.9-28c-.3.4-.7.7-1.2.8a2.2 2.2 0 0 1-1.4-.2c-.4-.3-.7-.7-.8-1.1a2.2 2.2 0 0 1 .2-1.4c.3-.4.7-.7 1.2-.8a2.2 2.2 0 0 1 1.4.2c.4.3.7.7.8 1.2.2.4.1.9-.2 1.3zm8.3 3.2l3.7 2.3c.9.6 1.5.9 1.7 1 .9.4 1.5.5 1.7 0 .1-.1.2-.4.3-.8 0-.1.1-.3.2-.5.5-.7 1-.9 1.6-.5.3.2.4.4.5.8 0 .4 0 .7-.3 1.1-.2.3-.5.7-1 1.3l-1 1.3c-.3.5-.6 1.1-.9 1.7-.4.8-.6 1.3-.8 1.5-.5.8-1 .9-1.7.5-.6-.4-.7-.9-.3-1.5.1-.1.3-.4.5-.6.2-.3.4-.5.5-.6.3-.5-.1-1.1-1.3-2-.1 0-.9-.6-2.4-1.5l-2.3-1.5-2.4-1.5c-1.2-.6-2-.7-2.3-.3-.1.1-.2.4-.3.7s-.2.5-.3.7c-.4.7-.9.8-1.5.5-.6-.4-.7-1-.2-1.8.2-.4.4-.6.5-.7.5-.5.7-.9.8-1.1.1-.1.2-.4.4-.7s.3-.6.4-.7c.3-.5.9-.6 1.6-.1.1 0 .2.1.3.2s.2.2.3.2c.1.1.7.5 1.7 1.1l2.3 1.5zm4-19.1l.8.4c-.9-1.9-.9-3.9 0-5.9.5-1.1 1.3-2 2.3-2.6 1-.7 2-1 3-1 .8 0 1.8.3 2.9.9l5.7 2.8 1.5.7c.7.2 1.2.1 1.4-.3.1-.2.2-.4.3-.7s.2-.5.2-.6c.1-.3.3-.4.6-.5a1.1 1.1 0 0 1 .8 0c.3.1.5.4.6.7s0 .7-.1 1-.4.7-.8 1.3-.7 1.2-1 1.7c-.2.5-.4 1-.6 1.3l-.6 1.7c-.4.8-.9 1-1.6.7-.6-.3-.8-.8-.4-1.5.1-.2.2-.3.3-.5l.5-.7c.2-.5-.2-1-1.3-1.6l-1.5-.7-1.8-.9-2.2-1.2c-1-.5-1.8-.8-2.2-.9-.8-.2-1.6-.1-2.3.3-.8.4-1.4 1.1-1.8 1.9-.8 1.6-.8 3 0 4.2.5.9 1.8 1.7 3.6 2.6l4 1.9c.9.4 1.5.7 1.9.7s.6-.1.8-.4c.1-.2.2-.4.2-.7.1-.3.1-.6.2-.7.3-.6.8-.8 1.5-.4.7.3.8.9.4 1.7-.1.2-.4.6-.9 1.5-.3.4-.5.9-.8 1.4-.2.4-.4 1-.7 1.7l-.6 1.6c-.4.8-1 1.1-1.6.8s-.8-.8-.5-1.4c0-.1.2-.3.4-.5s.3-.5.5-.8c.3-.6-.1-1.2-1.3-1.8l-3.3-1.6-3.6-1.8-1-.5c-.7-.3-1.2-.4-1.5-.4s-.5.2-.7.5c-.1.1-.1.4-.2.7s-.2.5-.2.7c-.3.7-.8.9-1.5.6s-.8-.9-.3-1.8c.1-.1.1-.2.2-.3l.7-1c.2-.3.3-.6.3-.9l.3-.8c0-.8.4-.9 1-.6zm11.7-32.4c.2-.5.5-1.1.9-1.8-2-.8-2.7-2.3-1.9-4.6.3-1 .8-1.7 1.5-2.2s1.5-.6 2.2-.4c.5.2.9.5 1.1.9s.3.9.2 1.3c-.1.3-.3.6-.6.8s-.6.2-.9.1-.6-.5-.8-1c-.5.2-.9.6-1 1.1-.4 1.1.2 1.9 1.5 2.4 1.6-1.2 3.3-1.6 5.1-1 1.5.5 2.5 1.4 3.1 2.8s.7 2.9.1 4.6c-.4 1.2-1 2.3-2 3.3-.3.3-.4.5-.5.8s0 .6.1.9.5.5.8.6c1.1.4 2-.6 2.7-2.8l.1-.2c0-.2.1-.4.2-.6s.1-.3.1-.4c.7-2 1.4-3.6 2.2-4.7.7-1 1.6-1.8 2.6-2.2s1.9-.5 2.9-.2c1.5.5 2.5 1.6 2.9 3.3s.2 3.8-.5 6.2-1.8 4.2-3.1 5.3-2.7 1.4-4.1.9c-1.7-.5-2.6-1.9-2.7-4-1.2 1.5-2.5 2-3.9 1.6-1.5-.5-2.2-1.7-2.2-3.6a4.47 4.47 0 0 1-2.8 0c-1.4-.5-2.4-1.4-3-2.8-.9-1.2-.9-2.7-.3-4.4zm2.1.6c-.3.9-.3 1.8 0 2.6s.9 1.4 1.7 1.7l.2.1c.9.3 1.8.2 2.5-.2.8-.5 1.3-1.2 1.7-2.2.3-1 .3-2 0-2.9s-1-1.4-1.8-1.7c-.9-.3-1.8-.2-2.6.3-.8.6-1.4 1.3-1.7 2.3zm12.2 4c-.5 1.7-.7 3.1-.5 4.2s.7 1.8 1.6 2.1 1.7 0 2.5-.8 1.5-2 2-3.6c.5-1.7.7-3.1.5-4.2s-.7-1.9-1.5-2.1c-.9-.3-1.7 0-2.5.7-.9.8-1.5 2-2.1 3.7zm-5.7-42.4c.2-1.5.8-2.6 1.7-3.5h-.1c-.8-.1-1.2-.5-1.1-1.2s.5-1 1.2-.9c.1 0 .5.1 1 .2l1.3.3c.3 0 .7.1 1.2.1s.9 0 1.2.1c.8.1 1.2.5 1.1 1.2s-.5 1-1.2.9l-1.1-.1c-.7-.1-1.3.2-1.8.9-.6.7-.9 1.5-1.1 2.5-.1 1 0 1.9.4 2.6s1 1.2 1.8 1.3c1.4.2 2.4-.7 2.9-2.5l.5-1.9c1-3.6 2.8-5.3 5.4-5a4.73 4.73 0 0 1 3.6 2.3c.8 1.3 1.1 3 .8 4.9-.2 1.8-1 3.3-2.2 4.5.2 0 .4.1.6.1.8.1 1.1.5 1 1.3s-.6 1.1-1.5 1c.2 0-.4-.1-1.7-.4-.3-.1-.6-.1-.9-.2-.5-.1-1-.1-1.5-.1h-1.1c-.8-.1-1.1-.5-1-1.2.1-.5.2-.7.5-.8.2-.1.8-.1 1.8 0s1.8-.3 2.5-1.2 1.2-2.1 1.4-3.6c.2-1.1 0-2-.5-2.8s-1.1-1.2-1.9-1.3c-1.5-.2-2.5.9-3.1 3.2-.5 2.2-1.2 3.9-2 5s-2 1.5-3.6 1.3c-1.5-.2-2.7-1-3.5-2.2-1-1.4-1.2-3-1-4.8zm3.4-24.5l1.1.1c-1.6-1.3-2.4-3.1-2.3-5.2.1-2.2 1-3.9 2.6-5.1s3.7-1.7 6.3-1.6c2.8.2 5 1 6.6 2.5s2.3 3.4 2.2 5.7c-.1 1.9-.9 3.4-2.3 4.5l2.8.2c.8 0 1.4.1 1.6 0 .7-.1 1-.4 1.1-.9 0-.1 0-.4-.1-.7s-.1-.5-.1-.7c0-.7.4-1 1.2-1 .7 0 1.1.5 1 1.5 0 .3-.1.8-.2 1.5-.1.5-.2 1.2-.2 2.2v1.3c0 .9.1 1.5.1 1.8 0 .4-.2.7-.4.9s-.5.4-.8.4c-.7 0-1-.4-1-1.2 0-.1 0-.3.1-.6.1-.4.2-.6.2-.8 0-.4-.2-.7-.6-.8s-1.6-.3-3.6-.4l-12.8-.8c-1 0-1.5.2-1.6.8 0 .1 0 .4.1.7s.1.6.1.8c0 .8-.4 1.2-1.2 1.1-.7 0-1-.5-1-1.5 0-.2 0-.5.1-.8.1-.5.1-1 .1-1.2v-.9-.8c-.1-.8.2-1.1.9-1zm4-.3a20.1 20.1 0 0 0 3.1.5c.1 0 .2 0 .5.1h.5c1.5.1 2.6 0 3.2-.2s1.3-.6 1.9-1.3.9-1.6 1-2.6c.1-1.6-.4-2.9-1.5-3.8s-2.7-1.5-4.9-1.6c-4.4-.3-6.7 1.1-6.9 4.3-.1 1.1.2 2 .8 2.9s1.4 1.5 2.3 1.7zm9.8-40c.2 1.8-.4 3-1.9 3.6 1.8.9 2.8 2.6 3.1 5 .2 1.8 0 3.2-.8 4.4s-1.9 1.9-3.3 2c-1.8.2-3.3-.4-4.3-1.9-.4-.5-.7-1-.8-1.5-.2-.4-.4-1.3-.7-2.5-.4-1.8-.8-3-1.3-3.5s-1.1-.7-2-.6-1.6.5-2 1.2-.6 1.6-.5 2.7c.1 1 .5 1.9 1.2 2.7.3.3.5.4.8.4.1 0 .2-.1.3-.3.2-.3.5-.5 1.1-.6.4 0 .8.1 1.1.3.3.3.5.7.6 1.1.1.6-.1 1.1-.4 1.5s-.8.7-1.4.8c-1.2.1-2.4-.3-3.4-1.4s-1.7-2.5-1.9-4.3c-.5-4 1.2-6.2 5-6.7l6.6-.8c1-.1 1.7-.2 1.9-.3.8-.2 1.1-.6 1-1.3-.1-.8-.8-1.1-2.2-.9l-1.6.2c-.7.1-1.1-.2-1.2-.9s.4-1.1 1.5-1.3h.2l1.9-.2c1.9-.1 3.1.9 3.4 3.1zm-6.2 4.4l-2.3.3c.5.4.9.9 1.1 1.4s.5 1.5.8 2.8c.5 2.5 1.6 3.6 3.2 3.4.8-.1 1.5-.5 1.9-1.1.4-.7.5-1.5.4-2.5-.2-1.5-.7-2.6-1.6-3.3-.9-.8-2-1.1-3.5-1zm-10-26.6c-.9.2-1.5-.2-1.9-1.2-.7.3-1.2.8-1.5 1.5s-.3 1.6 0 2.5c.4 1.5 1.3 2.5 2.7 3.1s3.1.7 5 .2c2-.5 3.5-1.3 4.4-2.4s1.2-2.4.8-3.9c-.2-.9-.7-1.7-1.4-2.3s-1.6-.9-2.6-.9c-.8 0-1.3-.1-1.4-.1-.5-.1-.8-.4-.9-.9-.1-.4 0-.7.1-1 .2-.3.5-.5.8-.6.5-.1 1.2-.1 2.1 0 .8.2 1.6.4 2.2.8 1.7.9 2.8 2.4 3.2 4.4.5 2.2.2 4.1-1 5.9-1.2 1.7-3.1 2.9-5.6 3.5-2.7.7-5 .5-6.9-.5s-3.2-2.6-3.8-4.9c-.4-1.7-.3-3.3.3-4.6.7-1.4 1.7-2.2 3.1-2.6.8-.2 1.5-.1 2.1.2s1 .8 1.2 1.5c.1.5.1 1-.2 1.5 0 .4-.3.7-.8.8zm-9.1-30.9c.8-.3 1.3-.4 1.5-.4s.4.3.6.8l3.8 9.9c.1.3.2.4.3.5s.2.1.4 0c1.5-.6 2.7-1.6 3.3-2.9a4.55 4.55 0 0 0 .2-4.1c-.3-.9-.9-1.6-1.7-2.2s-1.6-.8-2.5-.8l-1 .1c-.5.1-.9-.2-1.1-.7-.3-.8 0-1.3.7-1.6 1.3-.5 2.8-.3 4.4.7s2.7 2.3 3.3 4.1c.8 2.2.8 4.2-.2 6s-2.7 3.2-5.1 4.2c-2.5 1-4.8 1.1-6.9.3s-3.5-2.2-4.4-4.4c-.7-1.9-.7-3.8.1-5.6.9-1.8 2.3-3.1 4.3-3.9zm3.5 11.6c.3-.1.3-.4.2-.9l-2.8-7.4c-.2-.4-.4-.6-.7-.5-1.1.4-1.9 1.2-2.4 2.3s-.5 2.3-.1 3.4c.4 1.2 1.3 2.1 2.5 2.7 1.1.7 2.3.8 3.3.4z"></path>
  <path fill="none" d="M42.3 348.6C-15.2 238.4 27.4 102.5 137.6 45s246.1-14.9 303.6 95.3"></path>
</svg>
